<?xml version="1.0" encoding="UTF-8" standalone="no"?>
<!-- Created with Inkscape (http://www.inkscape.org/) -->

<svg
   version="1.1"
   id="svg2"
   xml:space="preserve"
   width="257.33334"
   height="257.33334"
   viewBox="0 0 257.33334 257.33334"
   sodipodi:docname="The_Coffee_Bean__and__Tea_Leaf.eps"
   xmlns:inkscape="http://www.inkscape.org/namespaces/inkscape"
   xmlns:sodipodi="http://sodipodi.sourceforge.net/DTD/sodipodi-0.dtd"
   xmlns="http://www.w3.org/2000/svg"
   xmlns:svg="http://www.w3.org/2000/svg"><defs
     id="defs6" /><sodipodi:namedview
     id="namedview4"
     pagecolor="#ffffff"
     bordercolor="#666666"
     borderopacity="1.0"
     inkscape:pageshadow="2"
     inkscape:pageopacity="0.0"
     inkscape:pagecheckerboard="0" /><g
     id="g8"
     inkscape:groupmode="layer"
     inkscape:label="ink_ext_XXXXXX"
     transform="matrix(1.3333333,0,0,-1.3333333,0,257.33333)"><g
       id="g10"
       transform="scale(0.1)"><path
         d="M 0,1927.56 H 1927.56 V 0 H 0 v 1927.56"
         style="fill:#ffffff;fill-opacity:1;fill-rule:evenodd;stroke:none"
         id="path12" /><path
         d="m 969.09,1423.87 h 25.078 l 12.322,-0.85 13.18,-0.85 12.75,-0.42 13.18,-0.86 13.17,-1.27 12.75,-1.28 12.75,-2.97 12.33,-2.98 12.75,-3.39 11.9,-4.26 11.05,-4.67 11.05,-5.53 10.63,-6.37 9.77,-7.65 6.8,-7.65 6.38,-8.5 5.52,-8.93 5.1,-9.35 3.4,-10.2 2.55,-10.62 1.71,-11.06 0.42,-11.05 -2.13,-16.15 -3.4,-15.3 -5.52,-14.88 -6.8,-14.02 -8.5,-12.33 -9.78,-11.05 -11.05,-10.63 -11.9,-9.77 -12.75,-6.37 -13.17,-6.38 -14.03,-4.67 -13.18,-4.25 -14.03,-3.41 -14.02,-2.97 -14.45,-2.12 -14.03,-1.28 -14.87,-1.28 -13.602,-0.85 h -14.875 -14.027 l -14.45,0.85 -14.027,1.28 -14.023,1.28 -14.028,1.69 -11.902,2.56 -11.898,2.97 -11.051,3.4 -11.051,4.25 -10.625,4.68 -9.777,5.09 -8.926,5.53 -8.926,6.38 -7.223,5.52 -6.8,5.53 -5.528,6.37 -6.375,6.38 -5.101,6.8 -4.672,6.37 -4.254,6.8 -3.399,7.23 -2.976,8.07 -2.125,8.5 -1.274,8.51 -0.851,8.07 v 8.5 l 0.851,8.5 1.274,8.5 1.699,8.08 3.402,11.47 5.524,9.78 6.375,8.93 6.801,8.92 7.652,7.65 8.5,7.23 8.5,6.8 8.926,6.37 6.801,4.25 7.222,3.4 7.653,3.4 8.074,3.4 8.078,2.98 8.074,2.97 8.504,2.55 8.496,2.13 8.926,2.12 8.504,1.28 8.074,1.7 9.352,1.28 8.074,0.42 8.5,0.85 8.5,0.85 z m 210.82,-107.1 5.52,-1.28 -7.23,-6.8 -8.07,-5.53 -9.35,-5.1 -9.78,-3.4 -10.2,-3.4 -11.48,-3.82 -10.19,-2.55 -10.63,-3.4 -10.63,-1.7 h -9.77 -10.2 -9.78 l -9.77,1.7 -10.63,0.42 -9.77,1.7 -9.78,1.28 -9.78,1.27 -10.2,1.28 -9.772,0.85 -9.777,0.85 h -9.774 l -10.625,-0.85 -9.777,-0.85 -9.774,-1.71 -3.402,-1.69 -2.973,-0.43 h -2.55 l -2.977,-0.85 -8.926,-1.27 -9.351,-0.85 -8.926,-1.28 -8.926,-0.85 -9.773,-0.42 h -9.352 -8.926 -9.773 l -8.926,0.42 -9.351,1.28 -9.774,1.7 -8.078,2.12 -9.352,2.12 -8.921,2.56 -8.504,3.4 -8.075,4.25 -0.851,1.27 -0.848,1.7 -1.277,1.28 -0.848,1.27 10.625,-4.67 11.051,-3.4 11.051,-1.7 11.472,-0.43 11.055,0.43 11.047,1.7 11.477,2.12 11.05,2.55 11.903,2.98 11.051,2.55 11.05,2.97 11.899,2.13 11.476,2.12 11.051,0.43 11.051,0.85 11.051,-1.28 3.824,-0.85 h 3.402 l 3.399,-0.85 h 3.402 3.398 2.977 l 3.402,-0.42 h 2.973 l 10.202,-1.7 10.62,-1.28 10.63,-1.27 10.2,-0.85 10.63,-0.43 h 10.19 10.63 10.63 l 10.2,0.43 10.62,0.85 10.63,0.85 10.2,0.42 9.77,1.28 10.63,1.7 10.63,1.27 10.2,1.28 5.1,1.7 4.67,0.42 4.25,1.7 5.11,1.71"
         style="fill:#621b7b;fill-opacity:1;fill-rule:evenodd;stroke:none"
         id="path14" /><path
         d="m 973.766,1842.52 h 10.629 l 3.398,-0.85 3.402,-0.43 3.399,-1.7 2.976,-2.12 2.121,-2.55 1.279,-4.25 0.85,-4.25 -0.85,-4.25 -1.279,-3.4 -0.847,-0.43 v -0.84 l -0.426,-0.86 h -0.848 l -2.976,-2.12 -3.399,-0.43 h -4.254 l -4.25,2.13 -4.675,3.82 -4.25,5.1 -4.25,4.25 -6.375,0.43 -3.399,-2.55 -2.129,-3.4 -2.121,-3.83 -1.277,-3.82 -1.274,-4.25 -1.277,-4.25 -1.699,-5.1 -1.274,-3.83 -0.851,-3.82 -0.426,-3.4 v -3.4 l -0.848,-3.41 -0.851,-4.25 v -3.39 l -0.426,-3.83 v -3.4 l 4.254,-1.27 h 5.523 l 4.676,-1.28 3.399,-2.97 0.847,-3.41 -0.847,-2.97 -1.274,-2.55 -2.125,-2.98 -3.402,-0.42 -3.399,-0.85 -4.25,-0.85 -3.402,-0.43 h -0.851 l -0.848,-0.85 -0.426,-0.85 -0.848,-0.42 -1.277,-9.78 -1.273,-9.35 -1.703,-9.77 -1.274,-8.93 -0.851,-9.77 -1.274,-8.93 -0.426,-9.78 -0.847,-9.77 3.398,-2.98 4.25,-0.84 4.25,-1.28 3.402,-2.55 0.852,-2.12 v -2.13 l -0.852,-1.7 v -1.28 l -6.8,-1.27 -7.653,-2.13 -8.074,-1.27 -7.652,-1.7 -7.649,-0.43 -7.652,-1.69 -6.801,-0.43 h -7.648 l -1.278,2.12 -0.851,2.56 -0.844,2.12 0.844,2.12 6.379,2.98 5.527,3.4 4.246,4.68 2.551,6.37 1.277,9.35 0.852,8.92 1.273,8.93 1.7,9.35 0.425,8.93 0.848,8.92 0.852,9.35 v 8.93 h -3.825 l -3.824,0.85 -4.254,0.42 -2.972,2.98 -0.852,2.55 0.852,2.97 0.851,2.13 1.274,1.28 3.398,2.97 5.102,1.28 4.675,1.27 4.25,2.98 2.125,10.62 2.973,10.2 3.402,10.63 3.399,9.77 5.101,8.93 5.528,7.65 7.648,7.22 8.926,4.68 5.101,1.27 3.825,1.7 4.25,0.43 4.25,0.85"
         style="fill:#621b7b;fill-opacity:1;fill-rule:evenodd;stroke:none"
         id="path16" /><path
         d="m 889.188,1829.77 h 5.949 l 5.523,-0.43 4.676,-2.12 4.25,-3.4 2.125,-4.25 0.852,-4.25 -0.852,-5.1 -1.273,-3.83 v -0.85 -0.85 l -0.852,-0.42 v -0.85 l -3.398,-2.13 h -4.25 l -3.399,0.85 -3.402,1.28 -2.973,1.27 -2.129,2.13 -2.125,2.13 -2.121,2.12 -2.129,2.12 -2.125,2.13 -2.547,1.27 h -2.976 l -4.25,-2.55 -2.551,-3.82 -2.125,-3.83 -1.277,-4.25 -0.848,-5.1 -1.277,-4.67 -0.848,-5.1 -1.277,-4.68 v -3.4 l -0.848,-3.82 -0.852,-3.41 -0.425,-3.39 v -3.41 l -0.852,-3.82 v -3.4 -3.4 l 5.102,-0.85 h 4.675 l 5.524,-0.42 4.254,-2.13 0.851,-0.85 v -0.43 l 0.422,-2.12 -0.422,-2.97 -0.851,-2.56 -1.278,-2.12 -4.25,-2.98 -5.101,-0.85 -4.672,-0.42 -4.254,-2.13 -0.422,-9.77 -0.851,-9.78 -0.848,-9.77 v -9.78 l -0.426,-10.62 v -9.78 l 0.426,-9.78 v -9.77 l 15.301,-5.53 1.699,-6.8 -7.652,-2.12 -7.227,-2.13 -7.648,-2.12 -7.649,-2.13 -7.652,-2.12 -6.801,-2.13 -8.074,-1.28 -6.801,-0.84 -1.277,1.27 -0.848,2.13 -0.852,2.97 0.852,2.98 12.75,8.07 2.551,9.78 2.125,9.77 0.851,9.78 0.422,10.63 v 11.05 10.62 9.78 l 0.852,10.2 -3.399,2.12 h -4.254 l -4.671,-0.42 -3.825,2.12 -1.277,2.55 v 3.4 l 0.852,2.98 1.273,2.12 3.398,2.55 5.102,1.7 4.676,1.28 4.25,2.97 1.277,10.21 1.699,10.62 2.121,11.05 2.555,10.63 4.246,9.77 5.528,8.08 7.226,8.07 8.074,5.53 2.977,0.43 2.551,1.69 2.972,0.43 3.403,1.7 2.972,0.42 2.551,0.85 h 2.973 l 2.555,0.43"
         style="fill:#621b7b;fill-opacity:1;fill-rule:evenodd;stroke:none"
         id="path18" /><path
         d="m 610.371,1735.84 h 3.824 l 3.825,-7.23 3.824,-6.8 4.254,-7.65 4.25,-7.22 4.246,-7.65 3.402,-7.66 2.973,-7.64 2.551,-8.08 -2.125,-1.7 -1.696,-1.28 -2.129,-0.85 h -2.125 l -5.097,5.11 -5.528,5.52 -4.675,4.68 -5.95,4.24 -5.527,3.83 -6.801,1.7 -7.222,1.7 -7.653,-0.85 -2.547,-0.85 h -3.402 l -2.977,-0.42 -2.125,-1.28 -2.55,-0.85 -2.973,-1.27 -2.125,-2.13 -2.125,-1.7 -7.652,-6.8 -5.524,-7.65 -4.25,-8.93 -3.402,-9.77 -2.125,-9.78 -1.274,-10.62 -0.851,-10.63 0.851,-10.2 2.125,-11.47 2.551,-11.05 3.399,-9.78 4.25,-9.78 5.101,-8.92 5.524,-8.5 6.8,-7.65 7.653,-7.65 5.523,-3.4 6.379,-2.13 6.375,-2.12 6.801,-1.28 h 7.223 6.375 l 6.8,1.28 6.375,2.55 5.528,3.82 4.672,3.4 4.253,4.68 3.825,5.1 3.398,5.52 2.125,6.38 2.125,6.37 1.277,6.8 0.848,3.4 -0.848,3.41 -0.851,2.97 -1.274,2.97 -2.125,2.56 -1.277,2.12 -2.976,2.98 -2.122,2.12 -3.402,2.55 -2.976,3.4 -1.696,4.25 -0.851,5.1 1.273,3.4 2.125,2.13 1.274,2.55 2.128,2.12 2.125,1.7 2.122,1.27 2.976,0.43 2.551,0.85 h 2.976 l 3.403,-0.85 2.121,-0.43 2.976,-1.27 3.399,-4.25 2.551,-4.25 1.703,-5.1 2.121,-5.52 0.426,-4.68 0.851,-5.52 v -5.96 -4.67 l -0.851,-2.97 -0.426,-2.56 -0.848,-3.39 v -2.98 l -3.402,-8.93 -5.098,-9.35 -4.676,-8.07 -6.375,-7.65 -6.378,-7.23 -6.797,-6.37 -7.653,-5.53 -7.652,-4.25 -2.973,-0.42 -2.125,-0.86 -2.125,-0.85 h -1.273 l -5.527,-1.27 -5.528,-1.27 h -5.949 -5.523 -5.524 l -5.527,0.85 -5.528,1.27 -5.523,0.42 -9.352,2.98 -8.074,4.25 -7.652,4.68 -7.223,5.95 -5.953,5.52 -5.098,6.8 -5.101,6.8 -3.828,8.08 -5.949,13.17 -3.399,14.03 -2.125,14.45 -0.426,14.03 1.278,14.45 2.972,14.02 3.825,13.18 5.953,12.75 3.824,6.8 5.101,7.23 5.524,6.37 6.375,5.53 6.375,5.52 7.652,4.25 7.649,3.4 8.078,2.13 3.824,0.42 4.25,0.85 3.398,0.85 4.254,0.43 2.547,1.7 3.403,1.27 2.125,2.13 2.125,2.97 0.847,1.7 0.426,2.13 0.852,2.12 0.851,2.98 0.426,1.27 1.695,1.28 2.125,0.85 2.129,0.85"
         style="fill:#621b7b;fill-opacity:1;fill-rule:evenodd;stroke:none"
         id="path20" /><path
         d="m 994.594,1585.8 h 20.396 l 20.83,-1.69 20.82,-1.28 21.26,-3.4 20.82,-3.4 20.83,-5.1 20.4,-5.53 20.41,-6.37 19.97,-6.8 19.55,-7.66 18.7,-7.64 18.28,-9.35 18.27,-8.93 16.58,-9.77 16.15,-10.63 14.87,-10.2 9.36,-7.65 9.77,-7.65 9.78,-8.5 9.77,-8.5 9.78,-8.93 9.77,-8.92 9.36,-9.78 9.77,-9.78 8.93,-9.77 8.5,-9.78 7.65,-9.77 7.65,-9.78 7.64,-9.78 6.81,-9.77 6.37,-9.78 6.38,-9.77 4.25,-7.23 3.4,-6.8 4.25,-7.22 4.25,-6.8 3.4,-7.65 3.4,-7.23 4.25,-7.65 3.4,-7.65 3.83,-7.65 3.39,-7.65 2.56,-7.65 3.4,-8.5 2.97,-7.65 3.4,-8.08 2.98,-8.5 2.55,-8.5 2.12,-6.8 1.7,-7.65 2.13,-7.23 1.27,-7.64 1.28,-6.8 1.27,-7.66 2.13,-7.22 1.7,-7.65 0.42,-5.53 0.85,-4.67 1.28,-5.53 0.85,-5.95 0.42,-4.67 0.85,-5.53 v -5.52 l 0.85,-5.53 -7.22,-0.85 -7.65,-0.85 h -7.65 l -7.66,-0.42 h -7.64 -7.65 -7.65 -7.65 l -1.28,6.8 -1.7,7.65 -1.28,7.22 -1.27,6.8 -1.7,7.65 -1.28,7.65 -1.27,7.23 -1.28,7.65 -2.12,7.65 -2.12,7.65 -2.13,7.65 -2.13,6.8 -2.12,7.65 -2.13,7.65 -2.97,7.23 -2.55,7.65 -3.4,10.2 -4.25,9.78 -5.1,9.77 -4.26,9.78 -4.67,9.35 -4.67,8.92 -5.96,8.93 -4.67,8.5 -9.78,14.87 -10.62,14.45 -11.05,14.88 -11.9,13.6 -11.9,13.6 -12.33,13.18 -13.6,12.32 -13.6,12.75 -14.03,11.06 -14.87,11.04 -14.45,10.63 -15.3,9.78 -15.73,9.35 -15.72,8.07 -16.16,7.65 -16.15,7.23 -22.95,8.93 -22.95,6.8 -23.8,6.37 -22.95,5.1 -23.8,3.4 -23.81,2.55 -23.8,0.85 h -22.947 l -23.801,-1.28 -23.804,-2.12 -22.95,-4.25 -22.953,-4.67 -22.949,-6.38 -22.527,-7.22 -22.102,-8.08 -22.527,-9.78 -8.075,-4.25 -7.652,-4.25 -8.5,-4.25 -7.648,-4.25 -7.227,-4.67 -7.652,-4.25 -6.801,-5.1 -7.223,-4.68 -7.648,-5.1 -5.953,-4.67 -7.227,-5.1 -6.801,-5.53 -7.222,-5.53 -6.801,-5.52 -6.375,-6.37 -6.801,-6.38 -13.601,-12.33 -12.325,-13.17 -11.902,-13.6 -10.625,-13.18 -10.199,-13.18 -9.352,-14.02 -8.078,-13.18 -8.5,-14.02 -2.121,-3.4 -2.129,-2.98 -1.273,-3.4 -2.125,-2.55 -1.274,-3.82 -2.125,-3.4 -1.703,-2.55 -2.125,-3.83 -3.824,-8.92 -4.25,-8.93 -4.25,-9.78 -3.398,-9.77 -3.829,-9.78 -3.398,-9.77 -3.402,-9.78 -2.973,-10.62 -2.551,-10.2 -2.976,-9.78 -2.125,-10.63 -1.7,-10.62 -2.125,-10.2 -1.699,-9.78 -1.277,-10.62 -0.848,-9.78 h -7.652 l -7.649,-0.85 h -7.652 -7.652 -8.5 -7.653 l -7.644,0.85 h -7.652 l 0.851,8.93 0.422,9.77 1.699,9.35 1.278,9.78 1.273,8.92 2.129,9.78 2.121,9.78 2.125,8.92 2.129,9.77 2.973,9.36 2.55,9.77 2.973,8.93 2.551,9.77 3.828,8.93 2.547,9.35 3.402,8.93 5.102,11.89 5.523,11.06 4.676,11.47 5.953,10.2 5.523,10.63 5.524,10.2 6.375,9.77 5.949,9.78 6.375,9.77 6.379,9.78 6.801,9.77 7.648,9.36 7.649,9.77 8.078,8.93 8.074,9.77 8.504,8.93 33.574,33.15 4.25,3.83 4.25,3.82 3.824,3.41 4.254,3.39 4.25,3.41 4.25,3.82 4.676,2.55 4.25,3.4 9.773,7.22 9.352,5.96 9.777,6.37 8.926,5.53 9.774,5.95 9.777,5.52 10.625,5.52 9.773,5.53 7.653,4.25 8.074,3.4 8.504,4.25 8.5,3.4 8.074,3.4 9.348,2.98 8.078,3.4 9.351,2.97 8.922,3.4 9.352,2.55 8.926,2.13 8.925,2.97 9.778,2.13 9.351,2.12 8.922,2.13 8.926,2.13 11.477,1.69 11.476,2.13 11.473,0.85 11.906,1.28 11.047,0.85 11.051,0.84 h 11.902 11.051"
         style="fill:#621b7b;fill-opacity:1;fill-rule:evenodd;stroke:none"
         id="path22" /><path
         d="m 1638.93,1315.49 h 1.28 l 1.7,-0.43 h 1.27 l 1.28,-0.85 2.97,-4.25 3.4,-4.67 2.97,-5.1 1.71,-5.53 2.97,-5.52 1.28,-5.53 2.12,-5.52 0.85,-6.38 -0.85,-2.12 -11.9,-1.28 5.1,-5.1 4.68,-4.67 5.53,-5.11 4.24,-4.67 4.25,-5.95 3.4,-5.95 2.13,-7.23 0.85,-6.8 v -5.52 l -0.85,-6.38 -1.27,-5.52 -2.13,-5.11 -2.55,-4.67 -3.83,-4.25 -4.67,-3.4 -5.1,-2.12 -4.25,-0.85 -3.83,-1.28 -4.25,-0.85 -4.25,-0.42 -10.63,-0.85 -11.05,-0.86 -11.05,0.86 h -10.62 -11.05 l -11.48,-1.28 -11.05,-2.12 -10.2,-3.83 -2.12,-3.4 -1.7,-4.68 -0.43,-5.1 0.43,-4.24 2.97,-3.83 2.98,-3.83 3.39,-2.12 4.26,-1.28 h 3.4 l 3.4,1.28 3.4,2.12 3.4,2.13 2.97,1.7 3.4,1.27 3.4,0.43 4.25,-0.43 2.98,-2.12 2.55,-2.13 1.7,-3.4 0.43,-3.4 0.84,-5.1 -0.84,-4.67 -2.13,-5.1 -2.55,-2.55 -5.1,-2.13 -4.68,-0.85 h -5.1 -5.52 l -4.68,1.28 -5.1,1.7 -4.25,1.7 -3.82,2.12 -3.83,2.98 -3.4,2.97 -2.55,2.55 -2.12,3.4 -2.13,3.83 -2.13,3.4 -0.84,4.25 -0.86,3.83 -0.42,5.09 -0.85,4.68 0.85,5.1 0.42,4.67 1.7,4.25 1.28,5.11 2.13,3.39 2.97,3.41 5.95,5.52 7.22,4.25 7.66,3.4 8.07,2.13 9.35,1.7 8.51,0.42 8.92,0.85 h 8.5 5.53 4.67 5.52 l 5.11,0.85 5.52,0.43 5.1,0.85 3.83,2.12 4.25,2.55 1.69,2.98 1.28,2.12 1.28,2.55 0.85,2.98 v 2.97 3.4 2.55 2.98 l -2.98,4.67 -3.4,4.25 -3.4,4.25 -2.97,3.4 -2.13,1.71 -2.12,1.27 -2.13,0.42 -2.12,1.71 -7.66,2.12 -8.07,1.28 h -8.5 -8.5 l -8.07,-1.28 -8.51,-0.85 -8.5,-0.85 -7.65,-0.42 -2.55,-2.13 -1.7,-3.4 -1.27,-3.82 -1.28,-2.55 -2.13,-0.86 h -1.69 -1.7 l -2.13,0.86 -2.97,4.67 -2.98,6.38 -1.7,5.52 -2.12,6.37 -2.13,6.38 -1.7,6.37 -2.13,5.96 -1.27,5.52 v 0.85 h 0.85 0.42 l 1.7,0.85 2.13,0.43 h 2.13 l 2.12,-1.28 1.7,-2.12 2.13,-1.28 2.12,-1.27 2.13,-1.7 9.77,0.85 9.78,0.85 9.77,0.42 h 9.78 l 9.77,0.85 8.93,1.28 10.2,1.27 8.93,2.13 v 0.85 h 0.84 0.43 l 0.85,14.02 3.4,1.28"
         style="fill:#621b7b;fill-opacity:1;fill-rule:evenodd;stroke:none"
         id="path24" /><path
         d="m 1711.61,1067.27 v -54.4 l -1488.864,0.43 v 55.25 l 1488.864,-1.28"
         style="fill:#621b7b;fill-opacity:1;fill-rule:evenodd;stroke:none"
         id="path26" /><path
         d="m 1444.27,967.816 h 59.93 l 0.85,-2.546 -0.85,-3.403 -1.28,-2.972 -0.85,-3.403 -0.42,-2.129 v -2.121 l -0.85,-2.125 -0.85,-1.277 -1.28,-6.375 -1.27,-6.801 -1.7,-6.375 -1.28,-6.375 -2.12,-6.375 -1.28,-5.949 -2.12,-6.375 -2.13,-5.527 -3.4,-9.348 -3.4,-8.93 -3.82,-8.926 -3.83,-9.347 -3.82,-8.5 -3.83,-8.078 -4.25,-8.5 -4.25,-8.5 -5.1,-7.653 -4.25,-8.07 -4.68,-7.652 -5.1,-8.075 -3.82,-6.8 -5.1,-7.653 -4.68,-7.652 -5.1,-7.223 -8.5,-10.203 -8.07,-11.051 -8.5,-10.621 -8.93,-9.777 -9.77,-10.629 -9.36,-10.199 -10.19,-9.778 -10.63,-9.773 -13.18,-11.477 -12.75,-10.199 -13.17,-9.777 -12.33,-9.348 -13.6,-8.926 -13.18,-8.5 -13.17,-8.078 -14.03,-7.648 -7.65,-3.824 -6.8,-3.828 -7.65,-3.825 -8.5,-3.402 -7.65,-3.398 -8.5,-3.403 -7.65,-2.972 -8.5,-3.403 -8.08,-2.972 -9.35,-2.551 -8.07,-2.977 -8.51,-2.547 -8.5,-2.976 -8.92,-2.125 -8.5,-2.125 -8.93,-2.125 -4.24,-0.426 -3.41,-0.852 -4.25,-0.851 -3.4,-0.422 -3.82,-1.699 -3.4,-0.426 -4.25,-0.852 -3.4,-0.421 -25.08,-3.825 -25.92,-2.55 -25.51,-0.852 -25.923,0.852 -26.777,2.125 -25.504,3.398 -25.926,4.25 -25.926,6.375 -25.078,5.953 -25.074,8.5 -24.652,8.922 -22.95,9.777 -22.101,11.477 -21.676,11.902 -20.402,12.324 -18.699,13.176 -11.477,8.5 -11.477,8.926 -11.476,9.773 -10.199,9.778 -11.477,9.773 -10.199,10.629 -10.629,11.047 -9.773,11.48 -8.926,11.047 -9.774,11.051 -8.504,11.051 -8.5,11.476 -8.074,11.899 -7.226,11.055 -6.801,11.046 -6.375,11.055 -4.672,9.348 -4.254,8.926 -4.25,8.925 -4.25,9.352 -4.25,9.773 -4.25,8.926 -4.25,9.778 -3.398,9.773 -2.555,8.504 -2.973,8.926 -2.55,8.496 -2.977,8.929 -2.973,9.348 -2.125,9.777 -1.703,8.926 -1.695,8.926 60.777,0.852 2.973,-8.504 2.551,-8.926 2.976,-8.5 2.547,-8.926 2.977,-9.351 2.976,-8.075 3.399,-8.5 3.402,-7.648 v -2.977 l 0.848,-2.125 1.277,-1.703 0.848,-2.121 3.828,-9.351 5.101,-8.926 4.246,-8.926 4.68,-9.352 5.098,-8.074 4.676,-8.5 5.097,-8.5 5.528,-7.652 4.675,-8.5 5.524,-7.649 6.375,-8.078 5.527,-8.074 6.375,-7.652 6.375,-7.649 6.801,-7.648 7.226,-7.653 8.5,-8.925 8.075,-8.5 8.5,-7.653 8.504,-7.648 8.074,-6.801 8.5,-7.226 8.926,-6.375 8.5,-5.95 8.5,-6.375 8.925,-5.527 8.926,-5.527 9.352,-5.95 8.925,-4.675 9.774,-5.524 9.777,-5.097 9.778,-4.68 2.972,-1.274 2.551,-1.699 2.973,-1.277 3.402,-0.848 2.973,-1.277 2.55,-1.274 2.977,-1.699 2.551,-1.277 9.777,-3.399 9.774,-4.25 10.625,-2.55 9.777,-3.825 10.625,-2.55 10.203,-2.125 10.621,-2.125 10.203,-2.125 21.676,-4.25 23.375,-2.551 22.102,-2.125 h 22.953 l 22.951,0.422 23.37,2.129 22.96,2.972 22.1,4.25 23.37,4.676 21.68,6.375 21.25,7.652 21.25,7.649 19.98,8.926 19.55,9.777 18.28,11.477 17.42,11.046 7.66,5.528 7.64,5.527 7.23,5.524 7.65,5.949 6.8,5.949 7.65,6.379 7.22,6.375 6.81,6.375 2.55,2.551 3.82,2.976 2.13,2.547 2.55,2.977 2.97,2.125 2.55,2.55 2.98,2.977 2.55,2.973 7.22,7.648 6.38,7.652 5.95,7.649 6.37,7.652 5.53,7.653 5.95,7.648 5.53,6.801 4.67,7.652 2.13,3.824 2.12,3.399 2.12,2.551 1.28,3.824 2.13,2.551 1.27,3.402 1.7,2.977 2.13,2.972 3.4,5.949 3.39,6.375 3.41,6.375 2.97,6.379 2.55,5.95 3.83,6.375 2.55,7.226 2.98,5.949 1.26,4.25 2.13,4.25 1.28,4.25 1.7,4.676 1.7,7.223 2.12,6.801 2.13,6.378 2.97,6.801 2.13,7.227 2.13,6.797 2.12,7.226 2.12,6.801 0.43,1.273 h 0.85"
         style="fill:#621b7b;fill-opacity:1;fill-rule:evenodd;stroke:none"
         id="path28" /><path
         d="m 1500.8,753.18 h 3.4 l 4.25,-0.852 4.25,-1.273 3.4,-2.125 2.13,-4.25 1.27,-3.399 v -4.254 l -0.43,-4.25 -1.69,-2.55 -2.13,-2.122 -2.55,-1.703 -2.98,-1.273 -3.4,-0.852 h -3.4 l -4.25,1.7 -3.4,1.277 -3.82,0.851 -3.83,0.422 -3.82,-0.422 -3.4,-1.703 -1.28,-3.398 -0.85,-2.551 -0.43,-3.828 v -2.547 l 2.13,-7.652 2.13,-7.223 1.7,-6.801 2.97,-7.226 2.98,-5.953 3.4,-6.375 2.55,-6.375 3.82,-6.375 3.4,2.125 4.68,2.976 5.1,2.125 h 5.53 l 2.12,-2.125 1.28,-2.976 0.84,-2.551 v -2.973 l -2.12,-5.527 -4.25,-3.399 -4.25,-4.25 -2.55,-3.402 2.13,-5.098 1.69,-4.675 2.13,-5.102 2.13,-4.676 2.12,-5.097 2.97,-4.676 2.13,-5.102 2.12,-4.675 2.55,-5.102 2.13,-4.25 2.98,-4.672 2.12,-5.101 2.13,-3.825 2.55,-5.101 2.12,-4.25 2.98,-4.25 h 0.42 v -0.426 l 0.85,-0.852 h 0.85 l 3.83,0.852 5.09,2.125 4.68,0.426 4.25,-1.274 0.85,-0.851 0.85,-1.278 0.43,-1.273 v -1.703 l -3.4,-3.82 -4.25,-5.102 -4.25,-4.25 -3.4,-4.25 -4.26,-3.402 -4.25,-4.25 -4.25,-4.25 -3.39,-3.399 -2.55,-3.398 -3.83,-3.403 -3.4,-2.976 -3.4,-2.551 -2.12,-0.848 -1.28,0.848 -2.12,1.277 -1.28,2.122 3.82,9.777 0.86,9.777 -1.28,9.774 -2.97,9.777 -4.26,9.773 -4.67,8.926 -5.1,9.352 -3.83,8.926 -1.7,3.402 -1.27,2.973 -1.28,3.402 -1.7,2.551 -1.27,2.972 -2.13,3.403 -1.27,2.125 -2.13,2.972 -4.25,-1.699 -3.4,-1.699 -3.4,-2.125 h -5.1 l -1.27,2.125 -1.28,1.699 -0.85,2.977 -0.85,2.976 2.13,4.672 2.97,4.25 3.4,3.402 2.97,5.098 -4.24,11.902 -3.4,11.477 -3.83,12.75 -1.7,13.176 -1.7,12.75 1.7,11.902 3.83,11.051 7.22,10.625 2.55,2.551 2.13,2.125 2.97,2.972 2.13,2.125 3.4,2.551 3.4,2.125 4.25,1.277 4.25,1.7"
         style="fill:#621b7b;fill-opacity:1;fill-rule:evenodd;stroke:none"
         id="path30" /><path
         d="m 663.922,575.941 h 8.5 l 8.926,-0.847 8.504,-2.125 8.496,-2.125 8.078,-3.403 7.648,-3.398 7.653,-3.828 7.652,-3.399 7.648,-4.246 7.227,-3.828 7.648,-5.101 6.801,-4.25 7.652,-4.676 8.075,-5.098 7.648,-4.254 7.652,-3.824 8.075,-4.246 7.652,-3.828 8.5,-3.399 8.5,-3.402 8.926,-2.976 8.5,-1.7 9.777,-1.699 8.922,-0.426 v -0.847 -0.852 -2.551 l -0.422,-2.125 -1.699,-2.125 -2.129,-2.125 -9.773,-5.101 -10.2,-1.699 -10.629,0.425 -10.625,1.274 -10.199,2.125 -10.625,2.129 -9.777,1.695 -9.774,-0.848 -9.777,-13.175 -10.199,-12.75 -10.625,-13.176 -9.777,-12.75 -10.625,-12.324 -10.204,-12.754 -9.773,-12.325 -9.777,-12.754 -2.121,-4.246 -1.704,-3.828 0.852,-4.25 1.273,-4.25 1.7,-2.972 1.277,-2.555 0.852,-3.82 v -2.555 l -0.852,-0.848 -1.277,-0.426 h -1.7 H 689 l -4.25,1.274 -4.25,1.277 -3.828,1.278 -3.824,2.121 -5.524,2.976 -4.676,2.977 -5.527,2.547 -5.098,3.402 -4.675,2.973 -5.102,3.402 -4.676,4.25 -5.097,4.25 -1.278,0.426 v 1.699 2.125 l 1.278,1.277 3.398,2.125 4.25,0.422 h 4.25 5.102 3.824 l 4.25,0.852 4.254,2.125 2.972,3.402 6.801,8.496 7.649,8.93 6.375,8.5 6.8,8.926 7.227,8.5 6.801,8.926 6.375,8.5 6.801,8.925 3.824,5.95 3.824,4.675 4.254,4.25 4.25,4.676 4.246,5.102 3.402,4.672 2.125,5.101 0.848,6.375 -7.223,7.652 -6.8,7.653 -7.649,6.375 -8.5,5.523 -8.504,4.676 -8.926,4.25 -9.773,4.25 -9.777,3.402 -4.672,0.848 h -5.528 -4.25 l -5.101,-0.848 -4.25,-1.277 -4.25,-2.125 -3.824,-2.973 -3.828,-2.55 -2.551,-2.977 -2.973,-3.402 -2.125,-2.973 -2.125,-3.402 -1.273,-3.399 -0.852,-4.25 -0.426,-3.402 v -4.25 l 0.426,-3.402 1.699,-3.399 1.274,-2.976 2.129,-2.547 1.273,-2.977 2.973,-2.125 2.129,-2.125 2.55,-2.125 3.825,-1.273 3.824,-0.852 h 3.824 l 3.402,1.699 2.125,2.551 2.125,2.977 1.274,3.398 2.129,2.551 1.269,2.976 2.129,2.977 2.125,2.121 3.399,1.277 4.25,0.848 4.25,-0.848 4.254,-1.277 2.546,-2.121 2.977,-3.828 2.125,-3.824 1.273,-5.102 v -4.676 l -2.121,-4.25 -2.129,-3.398 -3.398,-3.824 -3.398,-2.551 -6.379,-2.977 -6.375,-1.273 -5.95,-0.852 h -6.375 l -7.226,0.852 -5.949,1.273 -6.375,2.125 -5.528,2.977 -4.25,2.547 -4.25,3.402 -3.398,4.25 -3.828,3.824 -1.699,4.676 -2.973,4.676 -1.277,5.101 -0.852,5.524 -0.848,2.976 v 2.551 2.977 l 0.848,2.547 v 2.976 l 0.852,2.973 v 2.551 l 0.425,2.976 3.825,5.528 3.402,4.671 4.246,4.254 4.68,3.399 5.097,3.824 5.528,3.398 5.523,2.129 6.375,2.547 2.125,0.852 h 2.125 1.703 l 2.973,0.847"
         style="fill:#621b7b;fill-opacity:1;fill-rule:evenodd;stroke:none"
         id="path32" /><path
         d="m 1212.63,527.066 h 3.4 l 0.85,-0.851 1.28,-2.121 0.42,-2.555 v -3.824 l -0.42,-2.125 -3.4,-4.25 -3.83,-2.551 -3.82,-2.976 -3.83,-2.547 -3.4,-2.125 -3.4,-2.125 -2.98,-2.129 -2.55,-2.973 -2.97,-3.402 -2.12,-2.547 -1.28,-4.254 -0.85,-4.246 -0.43,-8.504 v -7.648 l -0.85,-8.504 -0.85,-8.071 v -7.652 l -0.42,-8.5 -0.85,-8.5 v -7.652 l -0.42,-8.075 -0.86,-8.5 v -8.5 l -0.85,-7.652 -0.42,-8.5 v -8.078 l -0.85,-7.649 v -8.5 l 1.27,-1.273 2.98,-0.852 2.55,-0.851 h 2.97 l 8.93,1.703 8.5,2.547 7.65,3.402 6.8,4.25 5.95,5.098 5.53,5.527 4.25,6.375 3.4,6.801 2.12,4.25 1.28,4.25 1.27,4.676 1.7,4.25 1.28,5.101 1.27,3.825 2.13,4.25 2.97,4.25 h 2.55 l 2.13,-0.426 2.97,-0.848 2.13,-2.129 -0.85,-7.648 -0.85,-8.5 v -7.649 -7.652 l -0.43,-8.5 -0.84,-6.801 -1.28,-7.652 -1.28,-7.223 -8.07,-2.551 -7.65,-2.976 -7.65,-2.551 -8.08,-2.973 -7.65,-2.55 -8.5,-2.977 -8.5,-2.973 -7.65,-2.55 -8.5,-2.125 -8.08,-2.977 -8.5,-1.699 -8.5,-2.125 -7.65,-2.125 -8.07,-1.699 -8.5,-1.278 -7.66,-1.277 -2.12,1.277 -0.85,2.125 -1.27,2.129 v 2.973 l 2.12,2.551 2.55,2.972 2.98,2.125 3.39,1.703 2.98,1.7 2.13,2.55 2.12,2.973 1.27,4.25 1.28,8.926 1.28,9.777 0.85,8.926 0.85,9.352 0.42,8.925 v 9.774 l 0.85,8.926 v 9.777 l 0.85,6.375 0.43,7.227 0.85,5.949 v 7.222 l 0.85,6.379 0.42,5.95 0.85,7.222 v 6.375 l -1.27,3.403 -2.13,3.398 -2.97,2.129 -3.41,1.273 -10.62,0.852 h -10.2 l -11.48,-0.852 -11.05,-1.273 -10.62,-2.129 -10.2,-3.398 -9.78,-3.403 -9.35,-5.097 -3.4,-4.25 -2.55,-4.25 -2.12,-3.825 -2.13,-5.101 -1.7,-4.676 -0.42,-5.102 v -4.675 l 0.42,-5.098 3.83,-6.375 4.25,-4.676 5.52,-3.402 6.38,-2.121 3.82,-0.852 3.83,0.852 3.82,1.269 2.98,2.977 0.85,0.426 0.42,0.851 v 0.426 l 0.85,4.25 v 5.098 4.675 l 1.28,4.25 4.25,2.977 5.1,2.125 h 4.67 5.1 l 3.4,-1.699 2.55,-2.125 2.98,-2.551 1.27,-3.398 0.86,-3.829 v -3.398 l -0.86,-2.551 -1.27,-3.824 -1.28,-2.551 -2.12,-2.129 -2.13,-2.972 -2.12,-2.125 -5.1,-3.825 -5.53,-2.976 -5.52,-2.125 -6.38,-2.125 -6.8,-0.426 h -6.38 l -6.8,0.426 -6.37,1.273 -3.4,0.852 -2.98,2.125 -3.39,1.277 -2.98,2.125 -2.55,2.973 -2.12,2.125 -2.13,2.551 -2.13,2.125 -2.12,5.523 -2.13,5.953 -0.84,5.949 v 5.528 6.375 l 0.84,5.523 2.13,5.524 2.12,5.953 5.53,7.648 6.38,5.953 6.8,5.95 8.5,4.675 8.5,3.403 8.07,2.972 9.78,2.551 9.35,2.125 7.65,1.699 6.8,0.426 7.65,1.699 7.22,1.278 7.66,1.273 6.8,1.274 7.65,2.125 7.22,1.703 7.65,2.125 6.8,1.699 7.23,2.125 7.65,2.976 6.8,2.122 7.22,2.976 5.96,2.555 7.22,2.972"
         style="fill:#621b7b;fill-opacity:1;fill-rule:evenodd;stroke:none"
         id="path34" /><path
         d="m 914.688,98.2148 v -2.125 l -1.7,-2.5507 -1.277,-2.125 -1.273,-2.125 -2.125,-1.2735 -2.977,-1.6992 -2.125,-0.4258 h -2.551 -2.121 l -1.703,0.4258 -1.273,0.8477 -1.278,0.8515 -1.273,1.2735 -0.848,1.2734 -0.851,1.7031 v 2.125 2.5469 l 0.851,2.9766 1.274,2.1289 2.125,2.121 1.273,1.277 2.977,1.274 2.972,0.851 2.551,0.426 1.277,-0.426 h 2.125 l 1.7,-0.851 1.273,-1.274 1.277,-1.277 0.852,-1.695 0.848,-2.129 v -2.1252"
         style="fill:#621b7b;fill-opacity:1;fill-rule:evenodd;stroke:none"
         id="path36" /><path
         d="m 816.93,163.246 2.55,-2.129 2.129,-2.125 0.848,-1.273 0.426,-1.274 0.847,-1.703 v -2.125 -1.273 l -0.847,-0.426 v -1.699 l -1.274,-0.426 -0.851,-0.852 -1.278,-0.847 -0.421,-0.426 h -1.704 -1.273 l -1.273,0.426 h -1.704 l -0.425,0.847 -2.125,2.129 -1.274,2.121 -2.976,2.551 -1.274,1.703 -1.699,1.274 -1.699,0.851 -2.125,0.422 -2.977,0.852 -2.976,0.847 -1.274,-0.847 -2.551,-0.852 -2.125,-0.422 -2.125,-1.699 -2.125,-1.277 -1.277,-2.125 -0.848,-1.278 -0.851,-1.273 v -1.699 -1.278 -2.976 l 0.851,-1.27 0.848,-2.129 1.277,-1.273 2.125,-1.277 2.125,-0.848 3.399,-2.125 12.328,-4.25 3.824,-1.273 3.399,-2.129 2.55,-1.274 2.977,-2.125 2.125,-2.125 1.273,-2.976 0.852,-1.274 0.426,-1.277 v -2.121 -1.703 -3.825 l -0.426,-2.976 -1.273,-3.402 -1.704,-2.973 -2.121,-2.5509 -2.129,-2.1211 -2.55,-2.1289 -2.973,-1.2735 -2.551,-2.125 -2.972,-1.6992 -3.403,-0.4258 -3.398,-1.6992 -3.403,-0.4258 h -3.824 l -3.402,-0.8515 h -3.399 -3.402 l -5.098,0.8515 -4.675,0.4258 -5.528,1.6992 -2.125,0.4258 -2.125,1.6992 -2.972,1.2735 -1.278,1.2773 -1.273,1.6992 -1.699,1.6992 -0.426,2.125 -0.852,2.1252 0.852,1.703 v 1.27 l 0.426,1.277 0.847,1.277 1.274,0.848 0.851,0.851 1.278,0.426 h 1.273 l 2.977,-0.426 h 1.273 l 0.852,-0.851 2.55,-2.125 2.977,-2.547 1.27,-2.1289 1.703,-1.6993 2.125,-1.2773 2.125,-0.8477 1.699,-1.2734 2.125,-1.2773 h 2.976 l 2.973,-0.8477 2.555,0.8477 2.972,0.8515 2.551,0.4258 2.125,2.1211 2.125,1.2773 1.274,2.9762 1.703,2.973 v 1.277 1.274 2.129 l -0.852,2.121 -0.851,1.277 -1.274,1.274 -2.125,0.851 -1.273,1.274 -3.403,1.699 -11.476,3.402 -3.824,1.274 -3.825,2.125 -3.398,2.125 -2.977,2.125 -1.703,2.976 -1.699,3.403 -0.426,2.55 v 4.246 2.977 l 0.426,2.551 0.852,2.976 1.273,2.121 1.277,2.551 2.125,2.129 2.122,1.699 2.128,2.121 2.977,1.278 2.121,1.277 2.551,1.274 3.824,0.851 2.551,0.848 3.402,0.426 2.973,0.847 h 3.402 l 5.102,-0.847 h 4.672 l 4.254,-0.426 2.546,-0.848 4.254,-1.277 1.696,-0.848"
         style="fill:#621b7b;fill-opacity:1;fill-rule:evenodd;stroke:none"
         id="path38" /><path
         d="m 864.961,184.07 0.848,0.852 0.425,0.848 h 2.125 l 0.852,-0.848 0.426,-0.852 v -0.425 l 0.847,-0.848 -4.25,-18.703 h 10.625 1.278 l 0.851,-0.848 1.27,-0.851 0.851,-0.426 0.426,-0.852 0.852,-0.426 v -1.699 -0.422 -1.699 -0.426 l -0.852,-1.703 -0.426,-0.426 -1.699,-0.847 -1.273,-0.852 -1.278,-0.426 h -2.125 -11.05 l -10.625,-46.75 v -1.277 -0.851 -1.27 l 0.851,-0.852 1.274,-0.851 h 0.851 l 1.274,-0.4259 h 1.273 l 2.977,0.4259 2.55,0.851 2.977,1.278 2.551,2.121 1.699,0.851 1.273,0.426 h 0.852 1.273 0.852 l 0.426,-0.426 0.847,-0.851 0.426,-0.426 0.852,-0.851 v -0.844 -1.278 -0.851 -1.2736 l -0.852,-0.8516 v -1.2773 l -1.273,-0.8477 -2.551,-2.5507 -2.977,-2.125 -3.398,-1.2735 -2.977,-2.125 -3.398,-0.8515 -3.402,-1.2735 h -3.399 l -3.824,-0.8515 -3.828,0.8515 -4.25,0.4258 -3.403,0.8477 -1.695,0.8515 -1.277,0.4258 -0.848,1.6992 -1.277,1.2735 -0.852,0.8515 -0.426,1.2735 v 2.1289 l -0.847,1.2695 0.847,2.1289 v 2.1246 l 12.329,51 h -4.25 -1.278 l -1.273,0.426 h -1.274 l -0.851,0.852 -0.848,0.847 -0.426,0.426 v 0.852 0.851 1.274 l 0.426,0.851 v 0.422 l 1.699,1.699 0.426,0.426 1.695,0.852 1.278,0.426 h 2.125 l 2.551,1.699 2.125,0.426 2.976,1.699 2.121,1.273 1.278,1.278 2.125,2.125 2.976,3.398 2.551,3.828 1.273,2.547 1.7,2.977 1.277,0.425"
         style="fill:#621b7b;fill-opacity:1;fill-rule:evenodd;stroke:none"
         id="path40" /><path
         d="m 706,201.496 h 5.949 l 2.977,-0.422 2.551,-0.851 2.125,-0.852 2.976,-1.273 2.125,-1.278 2.121,-1.273 2.129,-1.699 2.125,-2.125 1.274,-2.129 2.125,-1.699 3.402,-5.95 3.398,-5.949 0.852,-1.703 h 0.848 l 0.425,-0.426 0.852,-0.847 h 2.121 l 1.277,0.847 1.274,0.426 1.703,1.703 0.426,1.274 v 0.851 1.274 l -8.078,31.878 h -70.129 l -12.325,0.848 h -8.5 -7.652 -6.375 l -5.523,-0.848 -5.528,-0.425 -5.527,-0.852 -5.523,-1.277 -5.098,-2.121 -4.254,-1.278 -4.25,-2.976 -3.398,-2.121 -3.403,-3.403 -2.976,-2.972 -2.547,-3.403 -2.125,-4.25 -1.278,-4.25 -0.847,-3.824 -0.852,-5.101 0.852,-2.551 v -2.977 l 0.847,-2.121 0.426,-2.976 1.703,-1.704 1.274,-2.972 1.277,-2.125 1.27,-2.125 2.129,-1.278 2.125,-2.121 2.125,-1.277 2.125,-1.699 2.125,-0.426 2.972,-0.852 2.551,-0.851 h 2.977 3.398 l 4.254,1.703 3.398,0.426 3.403,2.125 3.824,2.125 1.273,1.273 0.426,1.699 1.699,1.278 0.426,2.125 v 1.273 l 0.848,2.125 -0.848,2.129 -0.426,2.973 -1.699,1.273 -1.273,2.129 h -0.426 l -1.703,0.848 h -1.274 -0.847 -1.278 l -1.273,-0.848 h -1.703 l -1.274,-1.277 -1.273,-0.852 -0.852,-1.273 -2.55,-2.973 -1.7,-1.277 -1.277,-1.278 -1.273,-0.847 -2.125,-0.852 -3.403,0.852 -2.121,0.847 -2.129,1.704 -2.125,1.699 -1.273,2.551 -1.699,2.125 -0.426,2.976 v 2.547 2.977 l 0.426,3.398 1.699,2.977 1.273,2.125 1.278,2.55 2.125,2.125 2.972,2.977 2.551,1.273 2.977,2.125 4.25,1.278 3.402,1.273 4.25,1.703 4.246,0.422 4.68,0.848 5.097,0.851 h 5.528 5.523 l 4.676,-0.851 2.125,-0.848 2.125,-0.422 1.699,-0.851 1.703,-0.852 1.699,-1.273 0.422,-1.278 1.703,-1.273 0.426,-2.125 v -2.125 -2.977 -2.55 l -0.426,-3.825 -18.277,-76.504 -1.273,-2.972 -1.703,-2.129 -1.274,-1.2736 -2.125,-1.2773 -2.551,-0.8516 -2.976,-0.8477 h -3.399 -3.402 -1.695 l -0.426,-0.4218 h -0.852 l -0.847,-0.8516 v -1.2773 l -0.426,-2.125 0.426,-1.2735 v -2.125 l 0.847,-0.8515 0.852,-0.8477 14.449,0.8477 h 7.652 l 7.649,0.8515 h 75.656 l 16.574,31.8754 0.852,2.125 v 0.851 1.274 1.277 l -0.852,0.848 v 0.851 l -0.851,0.426 -1.274,0.848 h -0.847 l -0.426,0.851 h -1.277 l -0.848,-0.851 h -1.277 l -0.852,-0.848 -1.27,-0.426 -0.851,-1.699 -4.68,-5.527 -5.097,-5.524 -2.551,-2.125 -2.973,-2.551 -3.402,-2.125 -2.973,-2.125 -3.402,-1.277 -3.399,-2.121 -3.402,-0.852 -4.25,-1.2769 -4.25,-0.8477 -5.102,-0.8516 -4.671,-0.4257 h -5.102 -5.527 l -2.547,0.4257 h -2.977 l -1.277,0.8516 -1.274,1.2736 -0.847,0.851 v 0.852 0.426 0.844 l 8.922,40.382 h 4.25 4.25 3.402 l 4.25,-1.277 2.977,-0.852 1.273,-0.421 1.273,-1.704 0.852,-0.425 1.273,-1.696 0.852,-1.277 0.426,-1.273 v -2.129 -2.121 -2.977 -0.426 l 0.851,-1.699 0.848,-1.277 1.273,-0.422 2.125,-0.852 h 1.278 l 2.125,0.852 0.847,0.422 v 0.851 l 0.426,1.274 0.852,1.277 8.926,40.801 v 1.277 0.848 0.426 l -0.426,0.851 -0.852,1.274 -2.125,0.847 h -1.273 l -1.274,-0.847 -2.125,-1.274 -0.851,-0.851 -0.852,-1.274 -1.273,-2.976 -2.125,-2.551 -2.125,-2.125 -2.551,-2.977 -2.977,-2.121 -3.398,-1.277 -3.398,-1.278 h -1.704 -2.125 -11.05 l 7.652,31.879 1.273,4.25 0.852,3.403 1.273,2.972 0.852,1.278 0.848,0.847 0.425,0.426 1.704,0.852 2.55,0.851 4.246,0.422 H 706"
         style="fill:#621b7b;fill-opacity:1;fill-rule:evenodd;stroke:none"
         id="path42" /><path
         d="m 1289.13,149.219 h 7.66 l 2.97,0.851 h 2.97 l 2.56,0.848 2.97,1.273 2.13,1.278 1.7,1.273 2.12,1.703 1.7,1.274 1.28,2.125 1.27,2.125 0.85,1.277 1.28,2.973 v 2.125 l 0.85,2.125 v 1.703 2.121 l -0.85,1.703 v 2.125 l -0.43,1.274 -0.85,1.273 -1.27,1.277 -2.13,2.125 -2.97,2.125 -3.4,1.7 -3.4,0.425 -2.98,0.852 h -4.25 l -3.4,-0.852 -2.55,-0.425 -2.98,-0.848 -2.12,-2.125 -1.27,-1.277 -0.86,-0.848 -0.42,-1.277 -0.85,-1.7 v -0.425 -2.125 l 0.85,-2.977 v -1.273 l 0.42,-1.274 -0.42,-2.125 -0.85,-1.277 -0.85,-2.125 -1.27,-1.699 -2.13,-0.426 -1.28,-0.848 -2.12,-0.851 h -2.98 -1.27 l -2.13,0.851 -1.27,0.848 -1.7,0.426 -0.43,1.699 -0.85,1.273 -0.84,2.129 v 1.274 3.398 l 0.84,2.977 1.28,2.55 2.12,2.977 2.13,2.125 2.12,2.125 2.98,2.125 2.55,1.273 3.82,2.125 2.55,0.852 3.4,1.273 3.83,0.852 3.4,0.422 3.4,0.851 h 2.97 3.41 5.95 l 7.22,-1.273 2.55,-0.852 2.98,-0.847 2.97,-1.278 2.55,-1.273 2.98,-1.703 2.12,-1.699 2.13,-2.125 1.27,-2.973 1.28,-2.129 1.27,-2.547 0.86,-3.828 v -3.398 -2.125 l -0.86,-1.278 v -2.121 l -0.42,-2.125 -1.28,-2.129 -1.7,-2.125 -1.27,-1.273 -1.28,-2.125 -2.12,-1.278 -2.13,-1.699 -2.12,-1.699 -2.13,-1.699 -5.52,-2.125 -6.38,-2.129 2.98,-1.27 2.55,-0.851 2.97,-1.278 2.13,-0.421 2.12,-1.704 2.13,-1.273 1.27,-1.273 1.28,-2.125 1.27,-1.704 0.85,-1.273 1.28,-3.402 0.85,-3.399 0.85,-3.398 -0.85,-5.102 -0.85,-4.25 -1.28,-4.25 -2.12,-3.402 -2.55,-3.399 -2.98,-2.9762 -2.97,-2.5468 -3.83,-2.1289 -3.82,-2.125 -4.25,-1.2735 -3.83,-2.125 -4.25,-0.8515 -5.1,-0.8477 -4.25,-0.4258 -3.82,-0.8515 h -5.11 -5.52 l -6.38,1.2773 -6.37,1.6992 -2.55,0.4258 -2.98,1.6992 -2.12,1.2735 -2.13,1.2773 -1.7,2.125 -1.7,2.1211 -2.12,2.1289 -0.43,2.9766 -0.85,2.547 v 2.976 2.547 l 0.85,2.977 1.28,2.551 1.27,2.125 2.13,2.125 2.13,0.851 2.12,1.274 h 2.97 1.28 2.12 l 1.28,-1.274 1.27,-0.851 0.85,-0.426 0.86,-1.699 0.42,-1.274 v -1.273 -1.703 -1.274 l -1.28,-2.129 -0.85,-2.121 -0.42,-1.277 v -1.274 -1.277 l 0.42,-1.695 v -1.278 l 1.71,-0.851 0.42,-1.2736 1.7,-0.8516 2.55,-2.125 2.97,-0.4218 2.55,-1.2774 2.98,-0.8515 h 2.55 2.97 l 2.98,0.8515 1.7,0.4258 2.98,0.8516 2.97,0.4218 2.12,1.6993 1.71,1.2773 2.12,2.1246 1.7,1.278 1.28,2.121 1.27,2.125 1.28,2.976 0.85,2.551 0.85,2.125 0.42,3.399 v 2.976 3.399 l -0.42,2.976 -0.85,2.125 -0.85,2.551 -1.28,1.273 -1.27,2.125 -1.28,1.704 -2.12,0.425 -2.13,1.696 -2.12,0.425 -4.25,1.704 -4.68,0.421 h -5.1 l 1.27,7.653"
         style="fill:#621b7b;fill-opacity:1;fill-rule:evenodd;stroke:none"
         id="path44" /><path
         d="m 1027.74,193.422 v 1.273 l -0.85,0.852 h -1.27 l -2.12,-0.852 -3.83,-1.273 -3.4,-0.852 -4.25,-1.273 -5.53,-0.852 -4.67,-0.851 -5.527,-0.422 h -11.898 l -0.852,-0.852 h -0.852 l -1.273,-0.425 -0.426,-1.7 -0.851,-1.273 0.851,-1.277 0.426,-1.7 0.848,-0.425 1.277,-0.852 h 0.852 3.398 l 2.977,-0.848 3.398,-0.425 2.551,-0.848 2.125,-1.277 1.696,-0.852 0.43,-1.273 0.85,-0.852 v -1.273 -1.274 -1.277 l -14.027,-61.625 -0.852,-2.129 -2.125,-2.125 -2.125,-1.277 -1.699,-2.122 -3.824,-1.2769 -2.551,-1.6993 -3.402,-1.2773 h -4.25 l -2.125,-0.8477 -1.699,-1.2734 -0.426,-1.2773 -0.848,-1.2735 0.848,-1.7031 0.426,-1.2734 2.125,-0.8477 2.976,-0.4258 4.672,-0.8515 h 7.227 14.027 13.172 l 12.33,0.8515 h 2.12 l 1.71,1.2735 1.27,1.2734 v 0.8516 0.8515 0.4258 0.8477 l -0.85,0.8515 -0.42,0.4258 -0.86,0.8516 -1.27,0.4218 -2.12,0.8477 -2.13,0.8516 h -2.13 l -2.12,0.4257 -2.13,1.6993 -1.27,1.2769 -1.28,1.278 v 2.121 l -0.85,2.125 0.85,2.129 19.55,84.578"
         style="fill:#621b7b;fill-opacity:1;fill-rule:evenodd;stroke:none"
         id="path46" /><path
         d="m 1704.38,953.363 c 0,-6.375 -1.27,-12.75 -3.4,-19.125 -2.55,-5.949 -5.95,-11.472 -10.62,-16.574 -5.1,-4.676 -10.63,-8.5 -17.43,-11.051 -6.8,-2.972 -14.45,-4.25 -22.95,-4.675 -6.8,0 -13.6,1.703 -19.97,4.675 -5.96,2.977 -11.9,6.801 -16.58,11.899 -4.68,5.105 -8.5,10.629 -11.05,16.578 -2.55,5.523 -3.83,11.476 -3.83,17.004 0,6.801 1.28,13.176 3.83,19.551 2.97,5.949 6.37,11.472 11.48,16.148 4.67,4.676 10.62,8.5 17.42,11.477 6.8,2.55 14.02,3.82 21.68,3.82 6.8,0 13.59,-0.84 19.55,-3.395 6.37,-2.55 11.9,-5.949 16.57,-10.629 4.68,-4.25 8.51,-9.773 11.48,-15.722 2.55,-6.375 3.82,-12.754 3.82,-19.981 z m -12.32,1.278 c 0,6.8 -1.7,13.175 -5.1,19.129 -3.83,5.523 -8.5,10.199 -14.45,13.601 -6.38,3.399 -12.75,5.098 -19.98,5.098 -6.37,0 -12.32,-1.274 -17.42,-3.828 -5.53,-2.547 -9.78,-5.95 -13.61,-9.774 -3.39,-4.25 -6.37,-8.5 -8.5,-13.176 -1.7,-5.101 -2.97,-9.351 -2.97,-14.023 0.42,-6.375 1.7,-11.902 4.67,-17.004 2.55,-5.098 5.96,-8.926 10.2,-12.324 4.26,-3.402 8.51,-5.949 13.18,-7.227 4.25,-1.699 8.5,-2.55 11.9,-2.55 8.93,0 16.15,1.703 22.53,5.527 6.37,3.824 11.47,8.926 14.87,15.301 3.41,6.375 4.68,13.597 4.68,21.25 z m -15.73,-28.477 h -14.45 l -14.02,22.102 h -5.95 v -22.102 h -11.05 v 54.832 h 24.22 c 6.8,0 11.47,-1.277 14.88,-3.828 3.4,-2.551 5.1,-6.375 5.1,-11.477 0,-3.398 -0.43,-6.375 -1.7,-8.5 -0.85,-2.125 -2.13,-3.828 -4.25,-5.523 -2.13,-1.277 -5.1,-2.125 -8.5,-2.977 z m -12.75,38.68 c 0,1.699 -0.85,2.972 -2.55,4.246 -1.27,0.851 -3.82,1.703 -6.8,1.703 h -12.32 v -11.898 h 13.17 c 5.53,0 8.5,2.121 8.5,5.949 v 0"
         style="fill:#621b7b;fill-opacity:1;fill-rule:evenodd;stroke:none"
         id="path48" /><path
         d="m 261.426,1246.63 -2.125,-2.12 -2.977,-2.98 -2.976,-2.55 -1.7,-2.97 -2.125,-3.4 -2.972,-2.98 -2.129,-3.4 -2.125,-2.97 -3.399,-4.68 -2.976,-5.52 -2.547,-6.38 -2.129,-6.38 -1.273,-6.8 -0.852,-6.37 1.277,-6.38 2.125,-6.37 v -1.27 l 0.852,-0.43 0.848,-0.85 v -0.85 l 3.398,-3.4 4.25,-2.13 4.68,-0.42 5.097,0.42 1.7,1.28 2.125,2.13 1.699,1.69 1.277,2.13 -0.851,3.4 -1.274,3.4 -1.277,2.98 -2.121,3.4 -2.129,2.55 -1.274,2.97 -0.851,3.4 0.851,3.4 1.274,2.98 2.129,2.12 2.121,2.13 2.125,0.42 4.676,0.85 4.25,-0.85 2.976,-2.12 2.551,-2.55 2.125,-2.98 1.277,-3.4 0.848,-2.55 1.273,-3.82 v -3.4 -3.4 l -0.425,-2.98 -0.848,-3.4 -2.125,-6.8 -3.402,-5.52 -5.098,-4.26 -5.527,-3.82 -3.399,-1.28 -2.976,-0.42 -3.399,-0.85 h -3.398 -3.403 l -2.972,0.85 -3.403,0.42 -2.55,1.28 -3.825,2.13 -2.55,2.97 -2.977,3.4 -2.551,3.4 -1.699,3.82 -2.125,3.83 -1.273,4.25 -0.852,5.1 -0.426,6.38 v 5.52 l 0.426,6.38 1.699,5.52 1.278,5.53 1.273,5.52 2.125,5.53 2.125,5.52 5.527,9.78 4.672,7.22 z m 25.926,0 2.972,-5.1 3.828,-5.52 4.246,-5.53 4.68,-5.52 5.098,-5.53 4.676,-5.1 5.523,-4.67 5.527,-5.1 5.102,-4.26 4.672,-3.39 6.375,-3.41 6.375,-2.97 6.379,-2.55 6.8,-2.12 7.649,-1.7 7.652,-1.28 8.5,-0.42 h 8.926 l 7.652,0.42 8.5,2.13 7.649,3.4 6.801,3.82 7.222,4.68 5.528,6.37 4.25,6.38 3.402,6.8 2.973,7.65 2.125,7.65 1.277,8.5 v 6.37 h 11.898 v -0.84 l -0.847,-12.75 -2.129,-11.91 -2.547,-11.05 -4.25,-10.2 -5.527,-9.77 -6.375,-9.36 -4.25,-4.67 -4.676,-4.25 -5.098,-3.4 -4.676,-4.25 -5.949,-2.98 -4.68,-2.55 -6.375,-2.97 -6.375,-2.13 -13.597,-1.27 H 370.23 l -14.027,2.12 -13.176,3.4 -12.75,5.53 -11.05,6.38 -11.051,8.5 -9.352,9.77 -5.523,6.8 -4.676,6.38 -5.102,6.8 -4.671,7.22 -4.25,7.65 -4.254,6.8 -3.399,7.65 -3.824,8.51 -0.426,0.84 h -0.426 z m 73.953,0 1.699,-0.84 3.402,-0.86 h 3.824 l 2.977,1.7 h 12.324 l 2.125,-0.84 2.125,-2.98 0.426,-2.55 0.848,-4.25 -0.848,-3.4 -2.129,-3.4 -2.547,-3.83 -3.402,-2.12 -4.246,-1.28 -4.25,-0.85 -3.403,0.85 -3.824,0.85 -3.402,1.28 -3.399,1.27 -3.402,2.13 -2.976,2.97 -2.547,2.56 -2.977,5.09 -2.547,5.53 -0.851,2.97 z m 65.453,0 -0.848,-2.12 -2.129,-6.38 -2.547,-5.52 -2.976,-5.52 -2.125,-0.86 h -2.551 l -2.125,0.86 -1.699,1.27 -2.125,2.97 -0.426,2.55 v 2.98 2.55 2.97 2.55 l -0.848,1.7 h 20.399"
         style="fill:#621b7b;fill-opacity:1;fill-rule:evenodd;stroke:none"
         id="path50" /><path
         d="m 235.07,1246.63 1.703,2.55 6.375,9.36 5.524,9.77 4.254,9.78 2.547,10.2 0.851,11.9 -1.277,12.75 0.426,5.95 1.699,6.38 1.277,6.37 2.125,5.52 2.125,5.11 3.399,4.67 3.402,4.25 5.102,3.4 3.398,2.12 4.25,0.86 h 4.25 l 3.398,-2.13 2.551,-2.98 2.977,-3.39 2.125,-3.41 1.273,-4.25 1.278,-4.25 0.851,-4.67 v -5.1 -4.25 l -2.129,-10.2 -4.246,-10.63 -4.68,-8.92 -5.097,-9.35 -4.25,-8.93 -1.278,-8.93 2.129,-9.35 5.524,-9.77 0.426,-0.43 h -25.079 l -0.425,0.43 -0.422,-0.43 z m 109.235,0 -0.852,2.55 -0.426,6.38 v 11.9 l 1.278,6.38 1.277,5.52 0.844,2.13 0.426,2.12 1.703,2.12 1.273,1.71 -6.375,5.95 -5.523,4.67 -5.528,6.38 -4.675,6.37 -4.25,5.96 -4.25,6.37 -4.25,7.22 -3.403,6.8 -2.972,7.66 -2.551,7.64 -2.125,7.66 -1.699,7.65 -1.274,8.5 -0.851,8.5 -0.426,8.5 v 8.07 l 0.426,8.5 1.699,8.5 2.125,7.65 2.125,7.65 3.402,6.81 4.25,6.37 4.672,6.38 5.527,5.52 2.125,1.28 2.125,0.85 2.125,1.27 2.125,0.85 h 4.25 l 3.399,-0.85 2.976,-2.12 2.555,-2.55 2.121,-2.98 0.852,-3.4 v -3.4 l -0.852,-3.82 -1.277,-2.55 -0.844,-2.13 -2.129,-2.12 -2.125,-0.85 h -5.523 -5.528 l -4.675,-1.28 -4.25,-2.97 -3.403,-4.68 -2.121,-5.1 -2.125,-5.53 -0.851,-5.52 -0.852,-6.38 v -5.95 l 0.852,-5.52 0.851,-5.95 2.125,-7.65 2.547,-6.8 2.977,-6.38 3.402,-6.37 3.398,-6.38 5.102,-5.53 3.824,-4.67 5.949,-5.52 1.278,6.37 1.277,6.8 2.121,6.38 2.125,5.95 2.977,6.37 4.25,5.52 3.824,5.96 5.101,3.82 2.551,2.98 3.824,2.12 3.399,2.13 4.254,1.27 3.398,1.28 4.25,0.85 h 3.399 l 4.25,-0.85 8.5,-3.4 8.078,-4.68 7.226,-5.52 6.801,-7.23 6.797,-6.37 7.227,-5.53 7.652,-4.25 8.5,-2.55 2.547,1.27 2.976,2.13 2.551,0.85 3.824,0.43 1.278,-0.43 1.273,-1.7 1.278,-1.28 0.847,-2.12 -0.847,-4.25 -1.278,-3.4 -1.273,-3.4 -1.278,-3.4 -3.824,-5.53 -2.551,-5.95 -2.976,-5.52 -3.399,-3.4 -9.777,5.1 -9.773,5.95 -8.5,7.23 -8.926,7.64 -8.5,6.8 -9.774,6.38 -9.777,5.53 -10.199,2.97 -6.375,-2.13 -5.528,-2.97 -5.101,-4.25 -2.551,-5.53 -1.699,-2.12 -0.422,-2.55 v -2.97 l -0.852,-2.55 -0.425,-3.83 v -3.4 -2.55 l 0.425,-2.97 0.852,-2.98 1.273,-2.55 1.274,-2.98 2.125,-2.12 1.703,-1.28 1.273,-1.27 0.426,-0.85 2.125,-0.43 7.223,3.4 7.652,2.55 7.649,1.7 7.652,1.28 8.5,-0.85 7.652,-1.28 7.649,-2.97 7.648,-3.4 5.528,-4.25 5.101,-4.68 3.824,-5.1 4.25,-5.52 2.977,-6.38 2.551,-5.95 2.125,-6.38 2.121,-7.64 2.129,-11.91 0.847,-11.05 h -11.898 v 2.13 8.07 l -1.277,7.65 -1.7,5.11 -1.277,4.25 -2.121,4.25 -2.125,3.82 -2.551,3.82 -3.824,3.41 -3.402,3.4 -3.399,2.97 -4.254,2.55 -4.246,2.13 -4.676,1.27 -5.101,1.7 -5.528,0.43 h -4.671 -5.528 l -5.101,-0.43 -1.274,-0.85 -0.847,-0.85 -1.278,-0.42 -0.851,-0.85 v -0.85 l 4.25,-3.4 3.402,-3.4 4.25,-3.4 4.25,-3.41 3.398,-2.97 5.102,-2.97 4.25,-1.28 4.676,-1.28 7.652,6.81 5.098,-3.4 1.277,-1.28 0.422,-0.85 1.703,-1.28 0.426,-1.27 -2.129,-6.37 -1.699,-5.53 -1.699,-7.23 -1.274,-6.37 -1.277,-3.83 h -20.399 l -0.851,1.28 -1.703,2.13 -5.95,4.25 -4.671,4.25 -5.528,3.4 -5.527,4.24 -5.098,2.56 -5.527,3.4 -5.524,3.82 -5.527,3.4 -0.848,-0.85 -0.851,-0.42 -1.274,-3.83 -0.425,-2.55 -0.852,-3.4 -0.848,-3.83 v -3.39 l 0.848,-4.26 0.852,-3.4 1.277,-3.39 2.121,-2.98 0.852,-0.43 z m 28.902,0 0.848,0.43 4.25,0.85 h 4.25 l 2.976,-1.28 z m -88.406,91.39 h 2.976 l 0.848,-0.86 0.426,-4.67 v -5.1 l -1.274,-4.25 -0.851,-4.68 -2.125,-4.25 -2.129,-5.1 -2.121,-3.82 -1.699,-3.83 -1.704,-0.42 -0.425,-1.7 v -0.43 h -0.848 l -1.273,3.4 -0.852,3.4 -0.852,4.25 v 3.4 4.25 l 0.852,4.25 0.852,4.25 1.273,3.41 1.273,2.97 2.125,2.55 2.977,2.12 2.551,0.86"
         style="fill:#621b7b;fill-opacity:1;fill-rule:evenodd;stroke:none"
         id="path52" /><path
         d="m 465.012,1508.03 h 4.25 l 4.25,-0.43 4.25,-1.7 3.824,-1.27 3.828,-1.28 3.824,-2.97 3.825,-2.13 2.55,-3.4 v -0.42 h 0.848 l -48.875,-67.16 2.125,-4.25 2.547,-3.4 2.976,-3.4 3.399,-3.83 3.402,-2.55 3.824,-2.97 3.403,-2.55 3.398,-2.12 4.254,-1.28 4.246,-1.7 4.254,-0.43 3.824,-0.85 h 3.825 l 4.25,1.28 3.398,1.7 2.551,1.7 3.828,3.83 2.547,4.24 2.976,3.83 2.125,4.25 1.274,4.25 v 5.1 4.67 l -0.848,4.26 -2.125,3.4 -2.551,2.97 -2.976,2.55 -2.547,2.13 -3.828,2.97 -2.121,2.55 -1.278,3.83 v 4.67 l 0.852,4.26 2.121,3.39 2.125,2.98 3.402,2.12 4.676,1.28 h 4.25 l 3.399,-1.28 2.976,-2.12 3.402,-4.25 3.399,-5.1 2.125,-5.53 1.699,-5.52 0.426,-5.53 v -6.37 l -0.426,-5.53 -1.699,-5.1 -2.125,-5.95 -2.125,-6.38 -2.551,-5.52 -2.973,-5.52 -3.402,-5.11 -4.25,-4.67 -4.25,-5.1 -4.676,-4.25 -6.375,-4.25 -6.8,-2.55 -7.227,-2.13 -7.648,-0.85 h -7.653 l -6.801,1.7 -7.648,2.55 -6.375,3.4 -5.527,3.83 -5.524,4.67 -5.527,5.1 -5.098,5.53 -4.25,5.52 -3.402,6.38 -2.125,6.8 -2.125,7.65 -0.426,9.78 v 8.92 l 1.703,9.35 2.973,8.5 4.25,8.08 4.676,7.65 5.523,7.65 6.375,6.37 2.977,2.13 2.55,1.28 3.825,1.69 2.554,1.28 3.399,1.28 2.976,1.27 4.246,0.85 z m -14.024,-20.83 h 3.399 l 3.824,-0.43 3.398,-1.7 2.551,-2.12 0.852,-0.43 v -0.85 -0.85 l -26.352,-36.97 -2.976,4.25 -1.274,5.1 -0.851,5.52 v 5.53 l 0.851,4.25 1.274,3.4 1.277,3.4 1.699,2.97 2.551,2.55 2.125,2.13 2.973,2.12 3.402,1.7 h 0.852 v 0.43 h 0.425"
         style="fill:#621b7b;fill-opacity:1;fill-rule:evenodd;stroke:none"
         id="path54" /><path
         d="m 751.902,1732.86 6.801,-0.42 6.375,-1.7 6.375,-2.13 6.375,-3.4 4.676,-4.25 5.101,-4.25 3.399,-5.52 3.402,-4.68 3.399,-9.77 2.976,-10.63 1.278,-10.2 v -9.78 l -0.426,-10.62 -2.125,-9.78 -2.977,-8.92 -4.25,-9.35 -4.25,-6.38 -3.828,-5.53 -5.098,-4.67 -4.675,-5.1 -5.953,-4.25 -5.95,-3.4 -7.222,-2.55 -6.801,-2.13 -5.527,-0.84 -6.375,-0.86 h -6.375 l -6.375,0.86 -5.528,1.27 -5.523,2.12 -5.528,2.98 -4.246,3.4 -6.375,5.53 -4.679,6.37 -4.246,6.8 -2.977,7.22 -2.551,8.51 -2.125,7.65 -0.851,8.08 -0.848,7.64 0.848,5.11 0.851,5.52 0.426,5.1 2.125,3.82 1.699,5.11 2.125,4.25 1.699,4.25 2.125,3.82 5.102,6.38 4.676,5.52 6.375,5.1 5.523,4.68 6.375,3.82 7.227,3.4 7.648,3.4 7.653,2.98 h 2.55 l 2.973,0.42 h 2.551 z m -10.625,-14.45 h 4.25 l 5.102,-0.85 3.398,-2.12 3.403,-3.4 2.125,-2.98 1.273,-2.55 1.699,-3.4 1.278,-3.82 1.273,-3.4 0.852,-3.41 1.277,-3.39 0.848,-3.41 1.273,-9.34 0.852,-8.93 v -9.78 -9.34 l -1.703,-8.93 -1.27,-8.5 -3.402,-8.08 -4.25,-7.65 -4.25,-3.83 -4.25,-2.55 -4.68,-2.12 -5.098,-0.85 -5.523,2.13 -4.25,2.97 -4.254,3.4 -3.398,4.25 -4.25,9.77 -3.399,9.78 -2.129,10.21 -1.273,11.47 v 10.2 l 1.273,10.63 2.129,10.62 3.399,9.77 2.125,2.56 2.125,3.4 2.125,2.97 2.976,2.13 2.551,2.12 3.398,2.13 2.977,1.27 3.398,0.85"
         style="fill:#621b7b;fill-opacity:1;fill-rule:evenodd;stroke:none"
         id="path56" /><path
         d="m 1149.73,1752.41 6.8,-0.42 7.65,-0.85 7.22,-1.28 7.65,-2.12 6.81,-2.97 6.37,-3.41 6.38,-4.25 4.67,-5.52 2.13,-3.4 2.12,-4.25 2.12,-3.4 0.85,-4.25 0.43,-4.25 0.85,-4.25 -0.85,-4.25 -0.43,-4.25 -0.85,-2.13 -0.85,-1.7 -1.27,-2.12 -1.28,-1.71 -80.32,17.43 -2.98,-4.25 -2.55,-4.67 -2.12,-4.68 -2.13,-5.95 -1.27,-5.95 -0.86,-6.37 v -5.53 l 0.86,-6.37 1.27,-5.11 2.13,-3.82 3.4,-4.25 4.25,-2.98 4.25,-2.12 3.39,-1.28 5.11,-1.27 h 4.25 3.82 l 4.25,0.42 4.25,1.7 3.4,1.28 2.98,1.27 2.12,2.13 2.13,2.97 1.27,2.55 0.85,5.53 1.28,5.53 2.12,5.09 3.4,3.41 4.25,1.27 h 4.68 l 4.25,-0.42 4.25,-2.13 3.4,-2.98 2.12,-2.54 0.86,-4.25 v -4.25 l -1.28,-4.68 -2.12,-3.82 -2.98,-3.41 -3.4,-2.55 -2.97,-2.97 -3.41,-2.13 -4.25,-2.12 -3.4,-2.13 -8.5,-2.12 -8.92,-2.13 h -8.5 -8.93 l -8.5,1.7 -8.5,2.13 -7.65,3.4 -6.8,4.25 -4.68,3.83 -5.1,5.09 -3.4,5.53 -2.97,5.52 -2.55,5.53 -1.7,6.38 v 7.22 5.95 l 1.7,9.78 2.12,9.35 3.4,8.07 4.25,7.65 5.53,7.23 6.37,5.52 6.81,5.1 7.65,3.83 2.97,1.7 2.55,1.27 3.4,0.85 2.98,0.43 2.97,0.85 3.4,0.85 h 2.55 z m 13.17,-15.3 6.38,-0.85 6.37,-1.27 4.26,-2.55 3.39,-4.25 0.43,-3.83 0.85,-3.4 -0.85,-2.55 -0.43,-2.97 h -5.52 l -5.95,0.85 -5.53,1.27 -5.52,1.28 -6.38,1.7 -5.52,1.27 -5.53,1.28 -5.52,1.27 3.4,5.1 5.1,3.4 4.67,2.98 6.38,1.27 h 1.27 1.71 1.27 1.27"
         style="fill:#621b7b;fill-opacity:1;fill-rule:evenodd;stroke:none"
         id="path58" /><path
         d="m 1398.37,1576.45 v -0.42 l -1.7,-3.4 -2.13,-3.83 -2.13,-2.55 -2.54,-2.97 -2.98,-2.13 -3.4,-2.12 -3.4,-2.13 -3.4,-1.27 -3.83,-1.28 -3.82,-0.85 h -3.83 l -3.39,0.85 -3.41,0.43 -3.39,1.7 -3.83,1.27 -3.4,2.13 -4.25,2.12 -3.4,2.13 -2.55,2.12 -3.83,2.55 -3.4,2.98 -2.55,2.55 -2.12,2.12 h -32.3 l 0.84,-0.42 9.78,-7.23 9.78,-7.65 9.77,-6.8 9.78,-7.22 10.2,-5.95 5.95,-3.83 5.53,-2.12 5.94,-1.7 6.38,-2.13 7.23,-0.85 5.95,-1.27 h 7.22 6.38 l 4.67,0.42 4.25,2.12 4.25,2.13 4.25,2.13 3.4,2.97 3.4,3.4 2.98,3.4 2.55,3.4 0.85,3.4 1.27,3.83 0.85,2.55 0.43,3.4 v 3.82 l 0.85,3.4 v 3.4 l -0.43,3.4 h -29.32"
         style="fill:#621b7b;fill-opacity:1;fill-rule:evenodd;stroke:none"
         id="path60" /><path
         d="m 1293.39,1576.45 -8.93,6.38 -10.63,7.22 -10.2,5.95 h -0.84 v 0.86 l 0.84,2.97 1.28,2.55 1.27,2.12 2.13,1.28 3.4,-0.42 3.4,-1.7 2.98,-1.28 3.39,-1.27 3.83,-1.28 2.55,-0.85 3.4,-0.85 3.4,0.85 5.95,4.68 5.53,5.09 5.95,5.53 5.95,5.53 5.52,5.52 5.53,5.53 5.52,5.95 5.53,5.52 2.97,2.55 2.13,2.98 2.55,2.55 2.97,2.13 2.13,2.97 2.55,2.55 2.12,2.98 2.13,2.12 0.85,0.85 h 0.42 l 0.86,0.42 4.24,5.53 4.68,5.1 5.1,4.67 4.25,5.11 4.25,4.67 2.55,5.95 1.27,5.95 -0.42,7.23 -4.25,5.52 -5.1,4.68 -4.68,5.1 -5.52,4.25 -5.53,3.4 -5.52,3.4 -5.95,2.97 -5.95,3.4 -6.38,2.13 -7.22,1.28 -5.95,0.84 -7.23,0.43 -6.37,-0.43 -5.95,-1.7 -5.53,-1.7 -5.95,-3.82 -1.7,-2.13 -2.12,-2.55 -1.71,-3.4 -1.27,-2.97 -0.85,-3.4 -0.42,-3.4 v -3.83 l 0.42,-2.55 1.7,-4.25 1.27,-3.4 2.13,-2.97 2.55,-2.13 4.25,-0.43 4.25,0.43 3.4,0.85 4.25,1.28 4.25,0.85 h 4.25 l 3.4,-1.28 3.4,-2.13 2.13,-4.24 0.85,-5.53 v -5.1 l -2.13,-4.68 -4.25,-3.82 -4.67,-2.55 -5.1,-1.27 h -4.68 l -6.37,1.27 -6.38,1.28 -5.53,2.97 -4.67,2.55 -5.1,2.98 -3.4,4.25 -3.4,4.67 -2.12,5.1 -2.13,5.95 -1.7,6.38 v 6.37 l 0.85,6.38 2.12,6.37 2.13,5.53 2.55,4.68 2.98,5.09 2.97,3.4 3.4,2.13 4.25,2.13 3.4,2.12 4.25,1.27 4.25,0.86 3.83,1.27 4.24,0.85 h 3.41 2.97 3.4 l 3.4,-0.85 h 2.98 l 3.4,-0.85 2.97,-0.42 3.4,-0.86 13.18,-3.39 12.75,-5.11 11.9,-5.52 10.2,-6.38 10.63,-6.8 10.62,-6.8 9.78,-7.22 10.2,-6.8 9.35,-6.38 8.08,-6.37 9.34,-7.66 8.08,-7.64 7.65,-8.93 6.38,-9.77 5.09,-10.63 3.41,-11.9 0.85,-4.68 v -5.1 l -0.85,-4.67 -1.28,-5.1 -1.7,-4.68 -2.55,-4.25 -2.12,-3.4 -3.4,-3.82 -4.25,-3.41 -5.53,-2.54 -5.53,-2.13 -5.94,-1.7 -5.53,-1.27 h -6.38 -5.52 l -5.53,1.27 h -0.42 -0.85 l 0.85,-3.83 0.42,-4.25 0.85,-5.1 0.43,-4.25 h 0.42 -29.32 l 1.27,2.98 0.43,3.4 v 3.4 l -0.43,3.82 -0.85,3.4 -1.27,3.41 -1.28,2.97 -1.7,2.55 -2.13,2.98 -2.54,2.55 -2.98,2.12 -2.55,2.98 -2.97,2.12 -2.98,2.13 -3.4,2.12 -2.55,1.7 -3.4,1.7 -5.95,-5.1 -5.95,-5.52 -5.95,-5.53 -5.53,-5.52 -5.52,-6.38 -5.53,-5.53 -4.67,-6.37 -5.1,-5.53 0.85,-0.85 z m 136,101.16 h 4.25 l 5.11,-0.42 3.39,-2.13 3.4,-2.98 2.13,-2.54 1.28,-2.98 1.69,-3.4 0.43,-3.4 0.85,-3.4 v -3.82 -2.56 l -0.85,-3.4 -1.28,-4.25 -1.27,-3.4 -2.98,-2.97 -2.12,-2.98 -2.55,-2.55 -3.83,-2.13 -2.55,-2.12 -3.4,-2.13 -3.82,-2.12 -3.4,-1.27 -4.25,-0.85 h -3.4 l -4.25,0.85 -3.4,0.42 -4.25,1.7 -3.41,1.27 -4.67,2.98 -5.1,2.55 -4.25,3.4 -4.68,3.83 2.13,3.4 2.12,3.4 2.56,3.4 2.97,3.4 2.55,3.82 3.83,2.55 2.54,3.4 3.41,3.83 3.39,2.12 2.98,2.55 2.98,2.13 2.55,2.12 2.98,1.28 3.39,1.7 3.4,1.28 3.4,0.42"
         style="fill:#621b7b;fill-opacity:1;fill-rule:evenodd;stroke:none"
         id="path62" /><path
         d="m 1469.35,1552.23 h 7.65 l 7.64,-0.85 6.81,-1.28 7.22,-2.12 6.8,-3.41 6.38,-3.39 5.53,-4.25 5.52,-5.11 3.82,-3.39 2.13,-2.98 2.55,-3.4 2.12,-3.4 1.28,-4.25 2.13,-3.4 1.7,-4.25 1.69,-4.68 0.86,-5.1 v -4.67 l -0.86,-5.53 -0.42,-5.1 -2.12,-4.25 -2.13,-4.24 -2.98,-3.83 -3.4,-3.83 -2.12,-1.27 -1.28,-0.85 -1.27,-0.43 -1.7,-0.85 -5.95,5.52 -6.38,5.54 -5.52,5.52 -5.53,6.37 -6.37,6.38 -5.53,5.52 -5.52,6.38 -6.38,5.53 -1.27,2.12 -2.13,1.27 -1.7,1.71 -1.27,1.69 -1.28,0.85 -0.85,1.28 -1.27,1.7 -0.86,1.28 -4.67,-2.13 -5.1,-2.13 -4.25,-2.54 -4.25,-3.83 -3.83,-3.4 -3.82,-4.25 -3.4,-4.25 -2.55,-3.82 -1.7,-2.98 -1.28,-3.4 v -3.4 l -0.85,-2.98 v -3.4 l 0.85,-3.4 1.28,-3.82 1.7,-2.55 1.7,-3.4 2.97,-2.98 2.13,-2.97 2.97,-1.7 3.4,-2.13 2.56,-1.7 4.25,-1.27 3.39,-0.85 h 4.26 4.24 l 3.41,0.85 2.12,2.12 3.83,4.68 3.82,3.82 5.53,2.55 6.37,0.86 3.4,-0.86 2.98,-2.12 2.12,-2.13 1.28,-2.55 1.7,-5.1 0.42,-4.25 -0.42,-3.83 -1.7,-3.82 -2.55,-3.4 -2.98,-2.12 -3.4,-1.28 -4.25,-0.85 -7.65,-1.28 -7.65,0.85 -6.8,0.43 -7.22,2.13 -6.81,3.39 -6.37,3.83 -5.52,3.4 -5.53,4.25 -5.1,4.25 -4.25,4.68 -4.25,5.52 -2.55,5.53 -2.98,5.95 -2.12,6.8 -0.43,6.37 -0.85,6.8 1.28,7.66 2.12,7.22 2.98,5.95 3.39,5.95 5.11,5.53 3.82,4.67 5.53,5.1 5.95,4.25 2.55,1.7 3.4,1.7 3.82,1.28 4.25,1.27 3.4,1.7 4.25,0.43 h 3.41 z m 21.67,-23.8 h 7.65 l 4.25,-0.85 3.4,-1.28 3.4,-1.28 3.4,-2.12 2.98,-2.12 2.97,-2.98 1.7,-3.4 1.7,-4.25 0.43,-4.25 -0.43,-3.83 -0.84,-2.97 -2.13,-2.13 -2.12,-2.12 -2.56,-1.28 -2.97,2.56 -3.4,2.97 -2.98,2.97 -2.55,3.41 -3.4,2.55 -2.97,3.82 -2.98,2.55 -2.55,2.98 -1.27,2.12 -2.13,2.55 -2.12,2.13 -2.13,2.97 7.65,1.28"
         style="fill:#621b7b;fill-opacity:1;fill-rule:evenodd;stroke:none"
         id="path64" /><path
         d="m 1558.18,1442.57 h 5.52 l 5.53,-0.85 4.67,-2.13 5.1,-1.69 4.25,-3.83 4.25,-3.4 4.68,-4.25 4.25,-4.25 4.25,-4.68 4.25,-5.52 3.4,-5.52 3.4,-5.53 2.55,-6.38 2.55,-7.22 1.28,-6.8 0.42,-7.65 v -3.41 l -0.42,-3.82 -1.28,-3.4 -1.7,-2.55 -1.27,-2.98 -2.98,-2.12 -2.13,-2.13 -2.55,-1.27 -6.37,-3.4 -6.8,-3.4 -7.65,-2.12 -7.23,-2.13 -7.65,-2.12 -7.65,-2.13 -6.8,-2.98 -6.37,-3.39 -1.28,-4.25 0.42,-4.26 0.86,-4.24 -0.86,-3.83 h -0.42 -0.85 v -0.85 h -0.85 l -4.68,-0.85 -4.24,2.12 -3.4,2.98 -2.98,3.4 -2.13,2.97 -1.27,2.56 -2.13,3.39 -1.27,3.83 -1.7,2.55 -0.43,4.25 -0.84,3.4 0.84,3.4 0.43,1.7 0.85,1.28 0.85,1.27 v 1.7 l -7.65,3.4 -7.65,4.25 -6.38,4.68 -6.37,5.52 -5.53,6.38 -4.25,6.8 -4.25,8.07 -2.55,8.08 v 5.52 l 0.43,5.95 2.97,4.68 4.25,4.25 3.83,2.55 5.1,2.12 5.1,1.7 4.67,0.43 5.11,0.85 5.52,-0.85 4.68,-1.28 5.09,-1.27 5.95,-4.25 6.38,-4.25 5.52,-5.53 5.53,-5.52 5.1,-6.38 5.53,-5.52 5.1,-5.53 5.52,-5.52 3.4,-3.83 4.68,-2.13 5.1,-2.12 4.67,0.85 4.25,1.27 3.4,2.98 2.13,2.98 1.7,3.4 v 3.4 3.4 l -0.85,2.97 -1.28,3.4 -1.7,2.98 -1.27,1.7 -1.28,2.97 -1.27,2.13 -4.25,4.25 -4.25,2.55 -5.1,1.7 -5.53,0.42 -5.52,-1.27 -5.53,-1.28 -4.67,0.43 -4.25,2.97 -2.98,4.26 -2.13,4.67 -0.42,5.1 0.42,4.68 1.28,2.12 2.13,2.13 2.97,1.27 z m -43.36,-41.65 h 8.08 l 3.82,-1.7 3.41,-1.28 3.39,-2.12 3.41,-2.13 3.39,-2.55 2.98,-2.97 3.4,-4.25 4.25,-3.4 4.25,-4.25 3.4,-3.4 0.85,-0.85 h 1.28 l 0.84,-0.43 0.43,-1.7 -3.4,-1.28 -4.25,-1.27 -4.25,-0.85 -3.82,-0.85 h -4.26 -5.09 l -4.26,0.85 -3.82,0.85 -4.25,1.27 -3.83,2.13 -3.39,2.13 -3.41,2.54 -2.54,2.98 -2.13,3.4 -2.13,3.4 -1.7,4.25 v 2.13 0.85 1.27 l 0.85,1.28 1.28,2.12 2.12,1.7 2.13,1.28 2.97,0.85"
         style="fill:#621b7b;fill-opacity:1;fill-rule:evenodd;stroke:none"
         id="path66" /><path
         d="m 482.438,527.492 v -2.551 l 0.851,-4.25 0.422,-3.398 0.852,-4.254 2.125,-3.398 2.125,-2.977 2.125,-2.976 2.546,-1.7 3.829,-1.699 3.398,-0.426 3.402,0.426 2.977,1.699 2.547,1.278 2.129,2.125 3.398,1.273 2.977,1.277 2.55,0.848 h 3.825 l 3.398,-0.848 2.125,-2.128 2.125,-2.125 1.277,-2.547 1.274,-2.977 v -4.25 -3.828 l -1.274,-4.246 -2.976,-2.977 -4.676,-2.125 -4.25,-0.425 h -5.101 l -4.672,0.425 -4.676,0.852 -5.102,1.273 -4.675,1.274 -4.25,2.125 -5.102,3.824 -4.672,3.402 -4.25,3.399 -3.402,3.402 -2.125,2.125 -1.699,2.977 -1.278,2.55 -1.273,2.973 -1.278,2.551 -1.699,2.976 -0.426,3.399 -1.699,2.976 -0.422,2.547 v 2.129 h 18.7"
         style="fill:#621b7b;fill-opacity:1;fill-rule:evenodd;stroke:none"
         id="path68" /><path
         d="m 463.738,527.492 v 0.848 l -1.703,3.398 -1.273,2.129 -24.227,9.774 -7.226,4.25 -6.375,4.679 -5.528,5.524 -5.523,5.949 -5.524,5.949 -4.254,6.375 -3.398,7.227 -2.977,7.652 -1.273,8.074 -0.426,8.5 v 8.5 l 1.274,7.653 2.125,7.648 3.402,6.801 4.676,6.375 5.949,5.527 8.078,5.524 9.348,3.824 9.777,1.277 10.199,0.852 10.625,-0.852 10.629,-1.277 9.348,-1.695 9.777,-0.426 4.246,4.25 5.106,3.824 4.246,4.25 5.527,2.973 4.676,2.55 6.375,2.977 6.375,1.273 6.375,1.7 h 5.527 l 6.375,-0.848 5.524,-0.852 5.527,-2.121 4.676,-2.129 5.098,-2.125 4.254,-3.398 4.246,-4.25 1.703,-2.551 2.125,-3.402 1.699,-3.824 0.426,-3.825 0.847,-3.824 0.852,-4.25 -0.852,-3.402 -0.847,-3.402 -2.551,-6.375 -4.25,-4.247 -4.25,-3.824 -5.523,-2.976 -5.528,-1.278 -5.101,-0.851 h -5.524 -4.676 -5.101 l -4.676,0.851 -5.949,1.278 -4.676,0.847 -4.25,0.426 -4.25,0.852 -4.25,0.851 -4.676,0.422 -3.402,-4.25 -2.973,-3.824 -2.125,-5.953 -2.129,-4.672 -2.121,-6.375 -2.125,-5.527 -1.277,-6.375 -1.273,-5.524 v -4.254 l -0.848,-3.398 -0.426,-4.25 -0.851,-4.25 v -3.403 l -0.852,-4.25 v -3.398 -3.398 l 3.824,-0.852 h 3.828 4.25 l 3.403,0.852 4.246,1.273 3.828,0.852 3.398,2.121 2.551,1.277 4.25,3.402 3.402,3.399 2.973,4.25 2.125,3.398 2.125,4.25 2.551,3.828 2.976,2.551 4.25,2.121 h 4.25 4.676 l 3.399,-1.273 3.824,-2.973 1.703,-2.555 1.699,-3.82 v -3.828 -2.973 l -2.976,-6.375 -4.25,-4.679 -4.676,-4.246 -5.098,-3.403 -5.949,-2.976 -7.227,-2.973 -7.652,-1.703 -6.801,-1.699 -7.648,-1.274 -7.652,-1.277 -7.227,-0.848 -6.797,-1.277 -0.851,-3.399 v -1.699 z m -10.629,106.68 h 7.653 l 4.25,-1.274 3.398,-1.277 0.852,-0.851 -2.977,-9.774 -2.547,-9.777 -2.129,-9.774 -1.273,-9.777 -1.703,-10.199 -1.27,-9.774 v -9.777 -9.773 l -5.105,0.425 -4.672,2.121 -5.102,2.977 -4.675,2.547 -4.25,4.254 -3.403,4.25 -3.398,4.25 -2.977,5.101 -2.547,3.825 -1.699,5.949 -1.277,4.676 v 6.375 l 0.851,4.675 1.274,5.102 2.125,4.676 2.125,4.246 3.402,3.402 2.973,3.824 3.828,3.403 4.246,2.547 3.402,1.703 3.825,0.425 3.402,0.848 z m 93.508,32.301 h 5.098 l 4.68,-0.848 4.246,-2.125 3.398,-2.551 1.277,-4.25 0.852,-4.676 -0.852,-5.101 -1.277,-4.25 -2.121,-2.125 -2.125,-2.125 -2.551,-1.277 -2.976,-0.848 -2.551,-0.422 h -2.973 -2.551 -2.976 l -3.399,0.422 -3.402,0.848 -4.25,0.851 -3.824,0.426 -3.399,1.699 -3.402,1.277 -2.976,0.852 -3.399,1.273 1.274,4.676 3.828,4.25 4.675,3.399 4.247,2.976 4.253,2.977 4.25,1.699 4.676,2.125 4.25,0.848"
         style="fill:#621b7b;fill-opacity:1;fill-rule:evenodd;stroke:none"
         id="path70" /><path
         d="m 784.629,441.637 h 7.226 l 6.801,-0.426 6.801,-0.852 7.223,-2.125 6.379,-2.125 5.949,-2.55 5.523,-3.825 5.102,-3.824 3.398,-3.824 3.403,-4.25 2.972,-3.828 2.129,-5.098 1.274,-4.676 0.851,-5.101 v -5.524 l -1.277,-5.101 -0.848,-3.403 -0.851,-2.546 -1.278,-2.977 -2.121,-2.551 -10.629,2.551 -9.773,3.402 -9.778,2.973 -9.773,3.402 -10.199,2.973 -9.778,2.551 -9.773,2.976 -9.777,1.274 -3.403,-4.676 -3.824,-5.949 -2.551,-5.949 -2.125,-6.375 -1.273,-6.801 v -7.227 l 1.273,-6.375 2.125,-6.801 2.125,-3.398 2.551,-2.977 2.977,-2.55 3.398,-2.125 3.399,-1.7 3.828,-1.277 3.824,-0.848 h 4.25 l 6.379,1.7 5.523,2.125 5.098,3.402 3.402,4.25 1.278,5.523 2.121,4.676 2.976,4.25 3.399,4.25 3.402,1.274 h 4.25 3.402 l 3.399,-1.274 2.976,-1.277 2.125,-2.121 2.121,-2.977 0.426,-2.551 0.852,-2.125 v -2.125 -2.125 l -0.852,-2.125 -2.125,-4.25 -1.699,-2.55 -3.824,-3.825 -2.551,-2.125 -3.398,-2.55 -3.825,-2.125 -3.402,-1.278 -4.25,-2.121 -8.074,-1.703 -9.352,-0.426 h -8.078 l -8.496,0.426 -8.504,2.125 -7.648,2.977 -7.653,3.398 -6.375,5.102 -4.672,3.402 -4.253,4.672 -3.399,5.101 -2.976,5.524 -2.125,5.527 -0.426,6.375 -0.848,6.375 v 5.949 l 1.274,9.352 2.125,8.074 2.976,8.078 3.824,6.797 5.098,6.379 5.527,6.375 6.375,3.824 6.801,4.25 2.977,1.7 2.55,1.277 3.825,1.273 3.398,0.852 3.399,1.273 3.402,0.852 h 2.976 z m 14.879,-14.453 h 3.398 l 2.551,-0.852 3.824,-0.422 2.551,-0.847 2.977,-1.278 2.546,-1.699 2.977,-2.129 2.125,-2.121 1.273,-3.402 v -3.399 -3.402 l -0.847,-3.399 -0.426,-0.851 -0.848,-0.848 -0.851,-0.426 -42.93,12.325 3.402,4.254 4.25,3.398 4.676,2.125 5.524,2.121 h 0.851 1.274 0.851 l 0.852,0.852"
         style="fill:#621b7b;fill-opacity:1;fill-rule:evenodd;stroke:none"
         id="path72" /><path
         d="m 908.738,414.434 h 7.223 l 7.652,-0.426 7.649,-0.852 7.652,-2.121 7.652,-2.125 6.797,-3.402 6.379,-4.25 5.098,-4.676 2.125,-3.824 2.125,-4.25 v -3.828 l 0.426,-5.098 -0.426,-4.25 -0.848,-4.676 -1.277,-5.101 -1.699,-4.246 -1.278,-5.528 -2.121,-5.527 -2.551,-4.672 -2.128,-5.527 -2.973,-5.95 -1.274,-4.675 -0.851,-5.528 v -5.523 l 2.976,-2.125 3.399,-1.703 2.976,-1.27 2.547,-2.129 v -1.273 l -0.847,-2.129 -0.426,-2.121 -0.848,-1.277 -3.402,-2.125 -4.25,-1.274 -3.402,-0.851 -4.247,-0.848 -4.25,0.848 h -4.253 l -3.825,1.273 -3.824,0.852 -3.398,2.125 -2.977,2.55 -2.551,2.977 -2.125,3.402 h -0.851 l -0.422,0.844 -7.227,-4.246 -7.652,-2.977 -7.648,-2.125 -8.079,-1.273 -8.496,-0.852 -8.504,0.852 -8.925,2.125 -8.5,2.973 -4.676,3.402 -2.977,4.25 -2.121,5.523 -0.851,5.528 0.851,6.375 1.274,5.523 2.125,4.676 2.976,5.101 3.399,3.399 4.25,3.402 4.25,3.824 4.675,1.704 9.778,2.972 9.777,1.274 9.774,0.851 9.773,0.852 9.777,0.426 8.926,1.699 8.5,3.824 7.652,5.949 1.7,3.403 v 4.25 3.398 l -1.7,3.402 -2.128,2.973 -2.547,1.699 -2.977,1.703 -3.402,0.422 -3.399,1.703 -3.402,0.426 h -3.824 l -3.399,0.848 -6.375,-1.274 -4.675,-2.976 -4.25,-4.25 -3.403,-5.524 -1.273,-3.402 -1.699,-3.398 -2.551,-2.977 -3.403,-1.277 h -5.097 l -5.102,0.851 -3.824,1.278 -3.824,1.273 -2.129,2.125 -1.274,2.977 -0.425,3.398 v 2.551 l 1.277,4.25 2.125,3.398 3.398,3.828 3.403,2.547 4.246,1.278 4.254,2.125 4.25,0.851 4.25,1.274 3.824,0.847 4.25,0.852 3.828,0.426 z m 22.524,-59.926 -0.848,-3.403 -0.426,-4.25 -1.699,-2.976 -2.125,-3.399 -1.277,-2.55 -2.551,-3.825 -2.121,-2.55 -2.977,-2.977 -3.398,-2.547 -3.402,-2.129 -3.825,-1.273 -3.828,-1.703 -5.097,-0.422 h -4.25 l -4.25,0.422 -3.825,0.851 -2.976,0.852 -2.129,0.426 -1.27,1.273 -1.703,1.703 v 5.524 l 0.852,4.675 2.972,4.25 4.254,3.399 5.524,2.976 5.523,2.125 6.375,1.274 5.528,1.277 6.375,0.848 5.527,0.851 5.523,0.426 5.524,0.852"
         style="fill:#621b7b;fill-opacity:1;fill-rule:evenodd;stroke:none"
         id="path74" /><path
         d="m 1329.09,499.016 h 10.62 l 4.68,-0.852 5.1,-0.426 4.67,-2.125 4.25,-2.125 4.25,-3.402 4.25,-4.246 1.28,-3.402 2.13,-2.973 1.27,-4.25 0.85,-4.254 -2.98,-1.273 -2.55,-2.125 -2.97,-1.274 -2.98,-1.703 -2.55,-1.273 -3.39,-1.278 -2.98,-2.121 -2.55,-1.277 -6.38,-3.828 -6.37,-3.399 -6.38,-3.398 -6.37,-3.403 -5.95,-3.398 -5.95,-3.824 -5.95,-3.828 -5.53,-4.25 1.28,-5.524 1.27,-5.097 1.28,-4.68 2.12,-5.098 2.98,-4.25 2.55,-4.254 3.82,-3.824 4.25,-3.824 2.55,-2.125 2.13,-2.125 2.97,-1.278 2.55,-0.421 3.4,-0.852 2.98,-0.852 3.4,0.852 2.97,0.852 3.4,0.421 2.98,1.278 2.55,2.125 2.98,2.125 2.54,2.125 2.13,2.976 2.13,2.125 2.12,2.551 0.85,3.824 1.27,3.399 0.85,2.551 0.43,3.824 -1.28,2.555 -1.27,2.972 -1.7,2.125 -1.27,2.547 -1.28,2.129 -1.27,2.977 v 2.546 3.403 l 1.27,4.25 2.12,3.824 3.4,2.551 3.4,2.125 h 4.25 4.25 l 3.41,-1.278 2.97,-2.121 0.43,-0.851 0.84,-1.278 0.85,-0.847 0.43,-0.426 1.27,-5.949 v -5.949 -6.375 l -1.27,-6.375 -1.28,-5.532 -2.97,-5.523 -2.55,-5.098 -2.97,-4.254 -5.53,-5.949 -6.38,-5.523 -6.8,-5.102 -7.22,-4.25 -6.8,-2.551 -7.65,-2.976 -7.65,-0.848 h -8.5 l -6.38,0.848 -5.95,2.129 -5.53,2.125 -5.09,3.398 -4.68,3.402 -4.25,3.825 -4.25,3.824 -3.4,5.101 -2.97,4.25 -2.13,4.676 -1.28,5.524 -2.12,5.101 -1.27,6.375 -0.86,5.949 v 6.375 l 0.86,6.375 0.42,6.379 2.12,6.375 1.28,5.524 2.98,5.523 4.25,6.375 4.25,5.528 5.52,4.675 4.68,5.102 6.37,3.398 6.38,3.403 6.37,3.398 7.65,2.125 h 1.28 1.27 1.7 z m -7.23,-15.305 h 8.08 l 3.4,-1.273 2.55,-2.125 1.7,-1.7 0.42,-1.277 0.85,-1.273 0.85,-1.7 -4.25,-3.828 -5.1,-3.82 -4.67,-2.555 -5.1,-2.972 -5.53,-2.551 -5.52,-2.977 -5.1,-2.547 -5.53,-2.976 -0.43,2.976 v 3.399 l 0.43,3.402 0.85,2.973 0.85,3.402 1.28,2.547 1.27,2.977 1.28,2.55 4.24,3.825 4.26,2.55 4.25,1.7 4.67,1.273"
         style="fill:#621b7b;fill-opacity:1;fill-rule:evenodd;stroke:none"
         id="path76" /><path
         d="m 1446.82,573.816 2.97,-0.847 h 3.41 l 2.97,-1.274 2.55,-0.851 2.13,-1.278 2.97,-2.125 2.13,-2.121 2.12,-2.976 4.25,-5.949 3.4,-7.227 2.55,-7.652 2.13,-7.649 2.12,-8.504 2.98,-7.648 3.4,-7.649 4.25,-6.378 3.4,0.851 4.25,1.274 4.25,0.851 3.4,-0.851 1.27,-2.125 v -3.399 l -0.42,-2.551 -0.85,-2.972 -2.98,-3.403 -2.55,-3.398 -3.4,-2.977 -3.82,-2.55 -2.55,-1.7 -2.98,-1.273 -3.4,-0.852 -2.97,-0.425 h -2.55 -2.98 l -2.55,0.425 -2.97,1.7 h -0.43 -0.85 -0.85 l -3.4,-7.649 -3.4,-8.078 -5.1,-6.801 -5.52,-6.375 -5.53,-5.949 -6.8,-5.102 -7.23,-4.25 -8.07,-2.55 -2.98,-0.848 h -3.39 -2.98 l -2.55,0.848 -2.98,1.277 -2.12,1.273 -2.13,2.125 -2.12,2.125 -2.55,4.25 -2.13,4.25 -2.12,4.254 -0.85,5.524 v 4.676 5.097 l 1.7,4.68 1.27,5.098 1.27,3.402 2.13,3.398 2.13,3.403 2.12,2.972 2.13,2.551 2.55,2.973 2.97,2.976 2.13,2.551 4.67,5.102 5.1,4.672 4.68,4.253 5.1,5.098 2.13,2.555 2.12,2.972 2.12,2.551 1.28,2.973 1.27,2.551 0.85,3.824 v 3.402 l -0.85,3.399 -2.12,3.402 -2.55,2.977 -3.83,2.121 -3.4,1.277 h -4.25 l -3.4,-1.277 -3.4,-1.696 -3.39,-1.277 -2.98,-2.125 -2.55,-2.125 -2.13,-2.551 -2.97,-2.125 -2.55,-4.25 -1.7,-4.25 -0.43,-5.527 0.43,-5.098 2.12,-3.828 0.85,-5.098 -0.85,-3.402 -2.12,-3.398 -4.25,-3.828 -3.83,-2.547 -5.1,-1.278 -4.68,0.426 -2.97,0.852 -1.28,1.273 -1.69,2.125 -1.28,1.274 -0.85,3.828 -0.43,3.398 0.43,4.254 0.85,3.398 0.85,3.403 1.28,2.972 1.27,3.403 1.7,2.547 5.53,7.226 5.52,6.375 5.52,5.528 6.38,4.671 6.38,5.102 6.79,4.25 7.66,3.398 7.65,2.555 3.4,0.848 h 2.97 2.13 z m 7.23,-55.253 2.12,-4.247 1.28,-4.25 1.27,-4.675 0.85,-5.102 v -4.676 -5.101 l -0.85,-4.672 -1.27,-5.102 -1.28,-3.402 -2.12,-2.973 -2.98,-2.55 -2.12,-2.977 -3.41,-2.547 -2.55,-2.129 -3.82,-1.273 -3.4,-0.852 h -2.13 l -2.12,0.852 h -2.13 l -1.27,0.426 -1.28,2.976 -0.85,2.547 -0.42,3.828 v 2.551 2.973 l 0.42,3.402 0.85,2.547 1.28,2.976 2.12,4.25 2.98,4.25 3.4,3.403 3.4,4.25 3.4,3.398 4.25,4.25 3.4,3.402 2.98,4.247"
         style="fill:#621b7b;fill-opacity:1;fill-rule:evenodd;stroke:none"
         id="path78" /><path
         d="m 925.738,723.852 2.125,-4.25 v -1.274 h -9.773 l -3.402,5.524 h -39.954 l 2.125,-0.848 10.625,-4.676 10.204,-5.101 11.05,-3.399 11.477,-3.402 1.273,-0.848 h 2.125 l 2.125,-0.851 1.278,-1.274 5.523,-6.801 4.25,-8.504 3.402,-8.925 2.973,-9.348 2.125,-9.777 1.277,-8.926 0.848,-9.774 v -8.925 l 0.426,-0.852 0.851,-0.851 1.274,-0.422 h 2.125 l 1.273,-0.848 h 2.129 1.696 l 0.425,1.27 0.852,13.179 0.851,13.602 v 13.176 l 1.274,13.175 1.277,12.75 2.973,12.325 4.25,12.75 0.851,2.125 h -18.277 l 0.426,-3.399 v -7.226 -7.649 l -1.277,-7.652 -2.973,-7.649 V 689.426 689 l -0.426,-0.852 -4.25,5.528 -2.973,7.222 -2.128,5.954 -1.274,7.648 -1.273,7.227 -0.426,2.125 h -9.352"
         style="fill:#621b7b;fill-opacity:1;fill-rule:evenodd;stroke:none"
         id="path80" /><path
         d="m 874.734,723.852 -8.5,4.253 -9.773,5.524 -9.777,6.375 -8.926,6.801 -8.5,6.8 -8.5,7.227 -7.653,8.074 -7.648,8.5 -6.801,8.5 -6.375,8.926 -6.375,9.777 -5.527,9.774 -3.399,8.5 -4.25,8.926 -2.55,9.351 -3.825,8.926 -2.55,8.926 -2.977,9.777 -2.551,9.348 -2.125,9.777 -2.125,11.899 -1.273,11.476 -0.852,11.902 -0.847,11.899 -0.426,11.898 v 11.907 11.898 11.898 h 2.547 l 3.402,-2.972 2.977,-2.551 2.972,-2.125 10.203,-7.652 11.473,-7.649 10.203,-8.5 10.625,-7.652 11.051,-8.5 10.625,-8.5 10.203,-8.926 10.625,-9.773 2.125,-2.129 2.121,-1.274 2.129,-1.273 1.274,-1.699 0.851,-0.426 v -0.852 -0.425 l 11.051,-9.352 6.797,-7.648 7.226,-7.649 6.375,-7.652 5.954,-8.5 5.523,-8.078 5.953,-8.5 4.672,-8.922 5.102,-9.352 3.824,-8.926 4.25,-8.929 3.402,-10.196 2.973,-10.203 2.125,-9.773 1.277,-11.055 1.699,-10.621 v -11.055 l 0.426,-7.226 v -6.797 l 0.426,-5.527 h -9.352 l -2.125,4.253 -5.101,8.922 -3.824,8.5 -5.102,8.078 -4.25,8.5 -4.676,8.5 -5.097,8.075 -4.676,8.5 -5.098,8.504 -4.68,8.5 -5.097,8.074 -4.676,7.648 -5.527,8.504 -5.098,7.649 -5.527,8.5 -5.098,7.652 -2.551,4.25 -2.976,4.676 -3.399,4.25 -2.555,4.25 -2.972,4.25 -3.403,4.676 -3.398,4.25 -3.824,5.101 -1.278,2.121 -1.273,1.703 -1.699,2.125 -1.278,2.977 -1.273,0.848 -1.277,1.273 -0.848,1.277 -0.848,1.278 -5.527,6.375 -5.527,6.375 -5.524,6.375 -5.523,6.8 -6.375,6.375 -5.528,6.797 -5.527,5.953 -6.375,5.95 33.578,-53.555 h 0.426 l 0.848,-0.848 0.851,-0.425 1.274,-2.125 1.277,-2.977 1.699,-2.125 1.274,-2.547 6.8,-10.629 7.227,-10.625 6.801,-10.199 7.222,-10.625 6.801,-10.629 6.801,-10.199 7.227,-10.625 6.375,-10.199 6.8,-10.629 6.379,-10.621 6.801,-10.204 6.375,-10.625 6.797,-11.05 6.375,-10.625 6.375,-11.051 2.977,-5.527 z m 76.93,0 v 4.253 l -0.851,7.649 -1.27,7.648 -1.703,7.653 -1.274,6.8 -1.277,7.649 -0.851,7.652 v 7.649 l 0.851,7.226 0.426,7.653 2.976,7.648 3.399,7.652 v 0.852 l 0.851,0.422 6.801,-11.903 2.125,4.254 1.274,4.25 0.847,5.524 0.852,5.101 h 0.426 l 0.851,-0.851 0.848,-1.274 v -1.703 l 0.426,-2.551 v -2.972 l 0.851,-2.551 v -2.973 -3.402 l 0.848,-2.973 v -2.55 l 0.426,-2.977 h 0.851 l 8.922,9.777 0.852,-8.078 -1.274,-8.5 -2.125,-8.5 -2.976,-8.5 -3.399,-8.074 -3.402,-7.652 -3.824,-8.5 -3.399,-7.653 h 0.848 l 2.551,2.977 2.976,1.699 2.973,2.977 2.551,3.398 2.125,2.977 2.976,2.55 2.547,3.825 3.402,2.55 8.079,12.75 5.949,12.325 6.371,12.754 6.38,12.324 6.37,12.75 5.95,12.324 7.23,11.481 8.5,11.046 1.7,2.977 2.98,3.398 2.12,2.551 2.55,3.824 2.13,2.551 2.97,2.977 2.13,3.398 2.54,2.977 h 0.86 v 0.426 l 4.25,4.25 5.1,4.25 3.82,4.675 4.25,3.825 11.48,9.777 11.05,8.922 11.9,8.929 12.33,7.649 13.17,7.226 14.03,6.801 14.87,5.524 16.16,5.527 8.92,2.125 9.78,2.125 8.92,1.699 9.35,1.274 8.92,0.425 9.78,1.7 8.93,1.277 9.35,0.852 8.93,1.273 8.92,0.852 9.35,1.273 8.92,1.273 9.78,2.125 8.92,2.129 9.36,2.121 8.92,2.977 -5.52,-11.473 -5.1,-11.054 -5.53,-11.047 -5.52,-10.629 -5.53,-11.051 -6.37,-10.625 -6.8,-9.773 -7.23,-10.203 -8.07,-10.625 -8.5,-8.926 -9.78,-8.5 -9.78,-7.227 -10.62,-6.801 -11.9,-5.523 -11.06,-5.102 -12.32,-4.675 -13.6,-3.399 -13.6,-4.25 -13.6,-3.402 -13.18,-4.25 -13.17,-4.25 -13.18,-5.098 -12.75,-3.828 -12.33,-5.098 -12.75,-4.675 -11.9,-5.95 -11.9,-5.527 -11.9,-5.527 -11.05,-6.375 -11.05,-5.95 -10.63,-7.226 -10.2,-6.797 -3.821,-2.977 -3.403,-3.398 -3.398,-3.402 -3.402,-3.399 -2.973,-3.828 -3.402,-3.398 -2.973,-4.254 -2.551,-3.399 -4.676,-8.925 z m 339.596,236.316 -4.67,-5.527 -5.53,-4.676 -5.1,-5.524 -5.53,-4.25 -5.52,-5.101 -5.53,-4.25 -5.52,-4.25 -5.95,-3.824 -3.83,-2.977 -4.25,-2.547 -5.1,-2.976 -4.25,-2.977 -3.82,-1.699 -4.25,-2.977 -4.25,-2.972 -5.11,-2.125 v -0.426 l -0.42,-0.852 v -0.425 l -7.65,-3.825 -7.23,-4.25 -7.65,-3.398 -7.65,-3.402 -7.65,-3.399 -6.8,-3.402 -7.64,-4.25 -8.08,-3.403 -6.8,-3.824 -7.65,-3.398 -6.8,-3.399 -8.08,-4.254 -6.8,-3.398 -6.8,-4.254 -7.22,-3.398 -6.81,-4.246 -5.09,-3.403 -5.53,-3.398 -4.68,-3.828 -5.1,-2.551 -4.67,-3.399 -5.1,-3.828 -4.68,-3.398 -4.25,-3.403 -6.38,-4.246 -6.37,-4.675 -5.95,-4.254 -5.95,-5.098 -5.95,-4.676 -5.95,-5.101 -5.95,-4.676 -5.53,-5.098 h -0.85 l -0.85,0.852 v 0.847 l 4.25,8.075 5.53,7.652 7.23,7.648 6.79,7.227 7.66,6.375 7.65,5.949 7.65,6.379 7.22,6.375 7.65,5.524 7.65,5.101 7.65,5.524 7.65,4.679 7.65,5.098 8.5,4.676 7.66,5.101 8.07,3.825 7.23,3.824 7.65,3.398 6.8,3.403 7.65,3.398 7.22,3.824 6.8,2.551 7.65,3.402 7.23,3.825 8.5,3.828 7.65,3.824 7.65,3.398 7.65,4.25 7.65,3.399 7.65,3.402 6.8,3.399 7.65,4.253 3.83,2.125 3.4,2.125 3.4,2.125 3.4,2.551 3.4,2.121 3.82,2.129 3.4,2.125 3.4,2.121 5.53,3.403 5.1,3.824 4.67,3.402 5.11,2.551 0.42,0.848 v -0.848"
         style="fill:#621b7b;fill-opacity:1;fill-rule:evenodd;stroke:none"
         id="path82" /><path
         d="m 1070.25,85.0391 h -5.53 l -5.1,0.8515 -5.52,0.4258 -4.26,2.125 -2.12,0.8477 -2.12,1.2734 -1.28,1.7031 -1.28,1.2735 -1.7,1.2773 -0.42,2.1211 -0.85,1.2773 v 2.9762 l 0.85,2.122 0.42,2.128 0.86,2.125 2.12,1.278 1.28,1.269 2.12,1.703 2.12,0.426 h 2.98 2.13 l 1.27,-0.426 1.28,-1.703 0.85,-1.269 0.42,-1.278 0.85,-2.125 v -4.25 -1.2769 l 0.85,-1.6993 0.43,-1.2773 1.69,-1.2695 2.56,-1.2774 2.97,-0.8515 h 2.55 2.98 4.25 l 3.4,0.8515 3.4,1.2774 3.4,1.2695 3.82,2.1289 2.55,2.1246 2.98,2.973 2.55,2.551 2.13,3.398 2.12,3.403 2.13,4.25 2.12,4.25 1.27,4.25 2.13,4.254 2.98,9.773 -5.11,-3.398 -4.25,-2.977 -4.67,-2.551 -4.25,-1.699 -4.68,-1.277 -4.25,-0.848 -4.25,-0.426 -4.25,-0.851 -2.97,0.851 h -3.4 l -2.55,0.426 -2.98,0.848 -2.12,0.851 -2.56,1.278 -2.12,1.273 -2.12,2.125 -2.13,1.273 -1.27,2.129 -2.13,2.121 -0.85,2.977 -1.27,2.547 -0.86,2.976 v 2.977 l -0.84,3.398 0.84,4.676 0.86,4.254 1.27,5.098 2.13,3.828 2.12,3.824 3.4,3.399 2.97,3.402 3.41,2.973 4.25,2.55 4.25,2.125 3.82,2.125 4.25,1.278 5.1,1.699 4.25,0.422 4.68,0.851 h 4.25 4.67 4.25 l 3.41,-1.273 3.82,-0.852 3.4,-1.273 2.55,-1.699 2.98,-2.129 2.97,-1.699 2.13,-2.973 1.27,-2.977 2.13,-3.398 0.42,-3.402 1.7,-3.399 0.43,-4.254 v -4.246 l 0.85,-4.676 -0.85,-7.226 -0.43,-6.801 -1.7,-7.223 -1.7,-5.953 -2.97,-6.375 -2.98,-6.375 -3.4,-5.527 -4.25,-5.524 -4.67,-5.097 -2.13,-2.129 -2.98,-2.1252 -2.55,-2.125 -2.97,-1.6992 -2.55,-1.6992 -2.98,-1.2773 -3.4,-1.2735 -3.4,-1.6992 -2.97,-1.2773 -4.25,-0.8477 -2.55,-0.4258 h -4.25 l -3.4,-0.8515 z m 29.32,104.1329 h -3.82 l -2.55,-0.852 -2.97,-0.425 -2.13,-1.7 -2.55,-1.273 -2.13,-2.125 -2.12,-1.277 -2.13,-2.973 -2.12,-2.129 -1.28,-2.551 -1.27,-2.972 -1.7,-2.551 -0.43,-2.973 -0.85,-2.976 v -2.551 l -0.85,-2.973 0.85,-4.68 0.85,-4.25 1.28,-3.398 0.85,-1.699 0.42,-1.278 1.28,-1.273 1.7,-0.852 1.27,-0.425 1.28,-1.696 h 2.12 l 1.7,-0.425 h 2.55 l 2.13,-0.852 2.97,0.852 h 2.55 l 2.98,1.273 2.55,0.848 2.98,1.277 2.12,2.125 2.12,2.125 2.13,2.125 2.12,2.125 1.28,2.551 1.27,2.125 1.28,2.976 0.85,2.547 0.85,3.403 0.43,2.976 v 2.973 l -0.43,4.676 -0.85,4.25 -1.27,3.398 -0.86,1.277 -0.84,1.7 -1.28,1.277 -1.27,1.273 -1.28,0.852 -2.13,0.848 -1.7,0.425 -1.7,0.852 h -2.12 -2.13"
         style="fill:#621b7b;fill-opacity:1;fill-rule:evenodd;stroke:none"
         id="path84" /><path
         d="m 1232.61,167.492 -2.13,0.852 h -2.12 l -1.28,1.277 -0.42,1.274 -1.7,1.277 v 1.695 l -0.43,2.129 v 2.125 1.699 2.125 l -0.85,2.125 -0.85,0.852 -0.42,0.848 -1.7,1.277 -1.28,0.848 -3.4,1.277 h -2.98 l -2.55,0.422 -4.25,-0.422 -3.39,-0.852 -2.98,-1.273 -3.4,-1.277 -2.98,-2.125 -2.55,-2.125 -2.97,-3.399 -2.12,-2.976 -2.13,-3.399 -2.13,-3.402 -1.69,-4.25 -1.71,-4.25 -1.27,-4.25 -1.28,-4.25 -2.12,-8.926 3.4,3.398 4.67,2.977 4.26,2.125 4.24,1.699 4.26,1.699 4.25,0.426 3.4,0.852 h 3.4 2.97 3.4 l 3.4,-0.852 2.98,-1.273 3.39,-0.852 2.13,-1.273 2.98,-1.274 1.7,-1.277 2.12,-2.125 2.13,-2.125 1.7,-2.125 1.27,-2.977 1.28,-2.546 0.85,-2.977 v -3.398 l 0.42,-3.403 -0.42,-5.101 -0.85,-4.25 -1.28,-4.25 -1.27,-3.825 -2.98,-3.824 -2.12,-3.398 -3.41,-3.4026 -2.97,-2.9766 -4.25,-2.5507 -3.4,-2.125 -4.25,-1.2735 -3.82,-2.125 -4.25,-1.6992 -5.11,-0.4258 -4.67,-0.8515 h -4.25 -5.1 l -4.68,0.8515 -4.25,0.4258 -3.4,1.6992 -3.4,1.2735 -3.82,2.125 -2.13,2.125 -2.55,2.1289 -2.12,2.5468 -2.13,3.8282 -1.27,2.547 -1.7,3.402 -0.43,4.25 -0.85,4.25 -0.42,4.25 v 4.676 l 0.42,5.949 v 5.528 l 1.28,5.949 1.7,6.375 2.12,5.523 2.55,6.375 2.98,5.528 3.4,5.527 4.25,5.098 4.25,4.675 2.55,2.125 2.12,2.125 2.98,2.125 2.55,1.274 3.82,1.703 2.55,2.125 3.4,0.426 3.83,1.699 3.4,0.422 3.4,0.851 h 4.25 3.4 6.8 l 5.95,-1.273 2.55,-0.852 2.98,-0.847 2.55,-0.426 2.12,-1.699 2.13,-1.278 1.27,-1.273 1.7,-1.277 1.28,-2.125 1.27,-1.7 0.85,-2.125 v -2.125 l 0.85,-1.699 -0.85,-2.125 -0.85,-2.129 -0.42,-1.695 -1.7,-1.277 -1.28,-1.274 -2.12,-1.277 h -2.13 z m -34,-20.824 -2.98,-0.852 h -3.4 l -2.55,-0.851 -2.98,-1.27 -2.12,-1.277 -2.13,-2.125 -2.12,-1.277 -2.13,-2.973 -2.12,-2.125 -1.28,-2.551 -0.85,-2.125 -1.27,-2.976 -0.85,-2.547 -0.43,-2.977 v -2.976 l -0.85,-3.399 0.85,-4.676 0.43,-4.25 1.7,-3.398 0.42,-2.1289 1.7,-1.6993 1.28,-1.2773 1.27,-0.8477 1.71,-1.2734 1.27,-0.4258 2.12,-0.8515 2.13,-0.8477 h 2.12 2.55 2.98 l 3.4,0.8477 2.97,0.8515 2.56,1.2774 2.12,2.1211 2.12,1.2773 2.13,2.9766 2.12,2.121 1.28,2.551 1.27,2.129 0.86,3.398 1.27,2.977 0.85,2.547 0.85,2.976 v 2.977 2.547 5.101 l -0.85,3.824 -2.12,3.825 -0.86,1.277 -0.42,1.273 -1.7,0.852 -1.28,1.277 -1.27,0.848 -1.27,0.422 -2.13,0.851 h -2.12 l -4.25,0.852"
         style="fill:#621b7b;fill-opacity:1;fill-rule:evenodd;stroke:none"
         id="path86" /><path
         d="m 969.09,1423.87 h 25.078 l 12.322,-0.85 13.18,-0.85 12.75,-0.42 13.18,-0.86 13.17,-1.27 12.75,-1.28 12.75,-2.97 12.33,-2.98 12.75,-3.39 11.9,-4.26 11.05,-4.67 11.05,-5.53 10.63,-6.37 9.77,-7.65 6.8,-7.65 6.38,-8.5 5.52,-8.93 5.1,-9.35 3.4,-10.2 2.55,-10.62 1.71,-11.06 0.42,-11.05 -2.13,-16.15 -3.4,-15.3 -5.52,-14.88 -6.8,-14.02 -8.5,-12.33 -9.78,-11.05 -11.05,-10.63 -11.9,-9.77 -12.75,-6.37 -13.17,-6.38 -14.03,-4.67 -13.18,-4.25 -14.03,-3.41 -14.02,-2.97 -14.45,-2.12 -14.03,-1.28 -14.87,-1.28 -13.602,-0.85 h -14.875 -14.027 l -14.45,0.85 -14.027,1.28 -14.023,1.28 -14.028,1.69 -11.902,2.56 -11.898,2.97 -11.051,3.4 -11.051,4.25 -10.625,4.68 -9.777,5.09 -8.926,5.53 -8.926,6.38 -7.223,5.52 -6.8,5.53 -5.528,6.37 -6.375,6.38 -5.101,6.8 -4.672,6.37 -4.254,6.8 -3.399,7.23 -2.976,8.07 -2.125,8.5 -1.274,8.51 -0.851,8.07 v 8.5 l 0.851,8.5 1.274,8.5 1.699,8.08 3.402,11.47 5.524,9.78 6.375,8.93 6.801,8.92 7.652,7.65 8.5,7.23 8.5,6.8 8.926,6.37 6.801,4.25 7.222,3.4 7.653,3.4 8.074,3.4 8.078,2.98 8.074,2.97 8.504,2.55 8.496,2.13 8.926,2.12 8.504,1.28 8.074,1.7 9.352,1.28 8.074,0.42 8.5,0.85 8.5,0.85 z m 210.82,-107.1 5.52,-1.28 -7.23,-6.8 -8.07,-5.53 -9.35,-5.1 -9.78,-3.4 -10.2,-3.4 -11.48,-3.82 -10.19,-2.55 -10.63,-3.4 -10.63,-1.7 h -9.77 -10.2 -9.78 l -9.77,1.7 -10.63,0.42 -9.77,1.7 -9.78,1.28 -9.78,1.27 -10.2,1.28 -9.772,0.85 -9.777,0.85 h -9.774 l -10.625,-0.85 -9.777,-0.85 -9.774,-1.71 -3.402,-1.69 -2.973,-0.43 h -2.55 l -2.977,-0.85 -8.926,-1.27 -9.351,-0.85 -8.926,-1.28 -8.926,-0.85 -9.773,-0.42 h -9.352 -8.926 -9.773 l -8.926,0.42 -9.351,1.28 -9.774,1.7 -8.078,2.12 -9.352,2.12 -8.921,2.56 -8.504,3.4 -8.075,4.25 -0.851,1.27 -0.848,1.7 -1.277,1.28 -0.848,1.27 10.625,-4.67 11.051,-3.4 11.051,-1.7 11.472,-0.43 11.055,0.43 11.047,1.7 11.477,2.12 11.05,2.55 11.903,2.98 11.051,2.55 11.05,2.97 11.899,2.13 11.476,2.12 11.051,0.43 11.051,0.85 11.051,-1.28 3.824,-0.85 h 3.402 l 3.399,-0.85 h 3.402 3.398 2.977 l 3.402,-0.42 h 2.973 l 10.202,-1.7 10.62,-1.28 10.63,-1.27 10.2,-0.85 10.63,-0.43 h 10.19 10.63 10.63 l 10.2,0.43 10.62,0.85 10.63,0.85 10.2,0.42 9.77,1.28 10.63,1.7 10.63,1.27 10.2,1.28 5.1,1.7 4.67,0.42 4.25,1.7 5.11,1.71"
         style="fill:#621b7b;fill-opacity:1;fill-rule:evenodd;stroke:none"
         id="path88" /><path
         d="m 1023.5,1769.84 h 5.95 l 7.22,-1.27 6.37,-1.28 5.53,-1.7 6.38,-2.55 4.67,-3.4 5.53,-3.83 4.24,-4.67 2.13,-3.4 2.13,-4.25 1.27,-4.25 0.85,-4.25 0.43,-4.25 v -4.25 l -0.43,-3.83 -1.27,-4.25 -82.461,3.4 -2.121,-2.97 -2.125,-3.4 -1.277,-3.4 -0.852,-3.4 -0.848,-4.25 v -4.25 l -0.421,-4.25 v -3.41 -4.25 l 0.421,-4.24 0.848,-4.26 1.277,-3.39 2.125,-3.41 2.129,-3.39 2.973,-2.98 3.402,-2.13 3.4,-2.12 4.25,-0.42 4.25,-1.71 h 4.25 4.25 l 3.82,1.71 3.83,0.42 3.4,2.12 3.4,2.13 3.4,2.98 2.98,3.39 2.12,4.26 v 2.54 2.98 2.97 2.55 l 0.42,2.98 1.7,2.55 1.28,2.13 2.13,2.97 4.25,1.28 4.67,0.84 4.25,-0.84 4.25,-1.28 3.4,-2.97 2.12,-3.41 1.28,-4.25 v -4.24 l -1.28,-4.68 -2.54,-5.1 -2.98,-4.25 -2.97,-3.4 -4.26,-3.4 -3.39,-2.98 -4.25,-2.12 -3.83,-1.7 -7.65,-2.98 -8.07,-2.12 -8.08,-1.28 h -7.65 -7.65 l -7.652,1.28 -7.648,2.12 -8.079,2.98 -4.675,2.55 -4.25,2.98 -4.25,4.24 -3.399,3.83 -2.976,5.1 -2.551,4.67 -2.125,5.95 -1.277,5.95 -0.848,3.83 v 3.4 2.55 3.4 l 0.848,3.83 v 2.55 l 0.425,3.4 v 3.82 l 2.129,7.65 2.973,6.8 3.402,6.38 4.25,6.37 4.676,5.53 5.949,4.67 5.949,4.26 6.375,3.39 4.254,1.7 4.25,1.28 3.4,1.27 4.25,0.86 3.4,0.84 h 3.4 l 3.4,0.43 z m 4.67,-13.18 h 5.1 l 4.68,-1.27 5.09,-2.98 3.41,-4.25 0.42,-3.39 0.85,-2.56 -0.85,-2.97 -0.42,-2.98 -45.91,2.13 0.43,3.82 2.12,2.56 2.98,2.97 2.12,2.55 3.83,2.98 5.1,1.27 5.52,1.27 5.53,0.85"
         style="fill:#621b7b;fill-opacity:1;fill-rule:evenodd;stroke:none"
         id="path90" /></g></g></svg>
